<?xml version="1.0" standalone="no"?>
<!DOCTYPE svg PUBLIC "-//W3C//DTD SVG 1.1//EN" "http://www.w3.org/Graphics/SVG/1.1/DTD/svg11.dtd" >
<!--
2013-9-30: Created.
-->
<svg>
<metadata>
Created by iconfont
</metadata>
<defs>

<font id="iconfont" horiz-adv-x="1024" >
  <font-face
    font-family="iconfont"
    font-weight="500"
    font-stretch="normal"
    units-per-em="1024"
    ascent="896"
    descent="-128"
  />
    <missing-glyph />
    
    <glyph glyph-name="x" unicode="x" horiz-adv-x="1001"
d="M281 543q-27 -1 -53 -1h-83q-18 0 -36.5 -6t-32.5 -18.5t-23 -32t-9 -45.5v-76h912v41q0 16 -0.5 30t-0.5 18q0 13 -5 29t-17 29.5t-31.5 22.5t-49.5 9h-133v-97h-438v97zM955 310v-52q0 -23 0.5 -52t0.5 -58t-10.5 -47.5t-26 -30t-33 -16t-31.5 -4.5q-14 -1 -29.5 -0.5
t-29.5 0.5h-32l-45 128h-439l-44 -128h-29h-34q-20 0 -45 1q-25 0 -41 9.5t-25.5 23t-13.5 29.5t-4 30v167h911zM163 247q-12 0 -21 -8.5t-9 -21.5t9 -21.5t21 -8.5q13 0 22 8.5t9 21.5t-9 21.5t-22 8.5zM316 123q-8 -26 -14 -48q-5 -19 -10.5 -37t-7.5 -25t-3 -15t1 -14.5
t9.5 -10.5t21.5 -4h37h67h81h80h64h36q23 0 34 12t2 38q-5 13 -9.5 30.5t-9.5 34.5q-5 19 -11 39h-368zM336 498v228q0 11 2.5 23t10 21.5t20.5 15.5t34 6h188q31 0 51.5 -14.5t20.5 -52.5v-227h-327z" />
    

    
    <glyph glyph-name="biaoqian" unicode="&#58884;" d="M934.912 379.904q23.552-26.624 19.456-49.664t-26.624-46.592l-324.608-327.68q-8.192-7.168-19.456-11.264t-23.04-4.608-23.04 2.56-18.432 10.24q-121.856 122.88-218.112 220.16l-80.896 80.896q-39.936 39.936-71.168 71.68t-51.2 51.2-20.992 21.504q-3.072 4.096-10.752 14.848t-6.656 25.088l0 19.456 0 40.96q0 23.552 0.512 52.736t0.512 58.88q1.024 70.656 2.048 156.672 2.048 13.312 6.144 24.064t15.36 22.016q10.24 11.264 22.016 16.384t22.016 5.12l329.728 0q2.048 0 9.216-0.512t10.24-1.536q6.144-2.048 11.264-5.12t10.24-8.192zM217.088 578.56q40.96 0 69.12 28.672t28.16 69.632-28.16 69.632-69.12 28.672q-20.48 0-37.888-7.68t-30.72-20.992-20.992-31.232-7.68-38.4 7.68-38.4 20.992-31.232 30.72-20.992 37.888-7.68z"  horiz-adv-x="1024" />

    
    <glyph glyph-name="wenzhang" unicode="&#58880;" d="M0 896l1137.575865 0 0-795.939663-267.130435-228.060337-870.44543 0 0 1024zM795.939663 100.060337l0 113.575865-626.030169 0 0-113.575865 626.030169 0zM966.757764 327.212067l0 113.575865-796.84827 0 0-113.575865 796.84827 0zM966.757764 554.363798l0 114.484472-796.84827 0 0-114.484472 796.84827 0z"  horiz-adv-x="1138" />

    
    <glyph glyph-name="msnui-article" unicode="&#58902;" d="M716.368 623.030h-404.436c-22.336 0-40.444-18.106-40.444-40.442s18.107-40.442 40.444-40.442h404.436c22.336 0 40.444 18.106 40.444 40.442s-18.106 40.442-40.444 40.442zM716.368 461.264h-404.436c-22.336 0-40.444-18.108-40.444-40.444 0-22.333 18.107-40.442 40.444-40.442h404.436c22.336 0 40.444 18.108 40.444 40.442 0 22.335-18.106 40.444-40.444 40.444zM878.143 825.239h-727.985c-44.672 0-80.887-36.212-80.887-80.884v-727.952c0-44.672 36.215-80.886 80.887-80.886l444.878 0.071c10.727-0.1 21.487 3.936 29.672 12.123l322.127 322.113c8.184 8.185 12.22 18.944 12.12 29.67h0.074v444.861c0.001 44.672-36.213 80.884-80.887 80.884zM635.483 75.618v142.996c0 22.331 18.107 40.44 40.442 40.44h143.001l-183.442-183.436zM878.143 339.935h-242.661c-44.674 0-80.888-36.212-80.888-80.881v-242.649h-363.991c-22.336 0-40.444 18.106-40.444 40.442v647.067c0 22.333 18.107 40.442 40.444 40.442h647.098c22.334 0 40.442-18.108 40.442-40.442v-363.979zM392.82 299.496h-80.887c-22.336 0-40.444-18.108-40.444-40.442 0-22.335 18.107-40.44 40.444-40.44h80.887c22.336 0 40.444 18.104 40.444 40.44 0 22.333-18.106 40.442-40.444 40.442z"  horiz-adv-x="1024" />

    
    <glyph glyph-name="msnui-mic" unicode="&#59022;" d="M704.352-3.566c-47.032 0.14-94.082 0.020-141.112 0.080-6.67 0.020-13.337 0.591-20.992 0.948 0 29.827 0.87 57.485-0.354 85.064-0.652 14.561 5.878 17.894 18.503 19.472 145.729 18.228 265.694 155.276 263.642 300.709-0.276 20.28-12.349 34.149-29.908 34.366-16.709 0.217-29.532-12.724-31.347-31.702-1.143-11.856-1.499-23.832-3.412-35.569-18.407-113.494-102.92-195.601-220.577-209.569-106.746-12.663-208.541 45.514-254.467 142.671-15.961 33.735-20.655 69.461-24.364 105.82-1.894 18.643-15.604 29.394-31.702 28.191-16.61-1.243-28.408-13.652-28.329-32.038 0.059-15.052 1.223-30.223 3.492-45.097 21.385-139.812 136.831-242.653 263.74-258.847 4.971-0.652 12.626-8.622 12.823-13.415 1.183-29.434 0.591-58.966 0.591-91.045-55.928 0-109.213 0.158-162.516-0.058-22.41-0.1-36.221-12.016-36.161-30.303 0.039-18.268 13.829-30.202 36.26-30.221 129.039-0.138 258.096-0.118 387.135-0.020 22.313 0.020 36.26 11.738 36.595 29.808 0.335 18.663-14.086 30.697-37.541 30.755zM645.918 789.448c-54.429 55.356-190.095 52.673-241.427 16.433-46.262-32.65-72.165-75.36-73.565-133.576h367.331c-2.053 47.346-20.3 84.572-52.339 117.143zM414.946 223.145c36.536-20.676 76.563-19.789 116.631-19.335 93.173 1.065 160.11 64.668 165.336 158.632h-367.111c2.88-63.069 31.209-108.759 85.144-139.297zM695.848 637.703h-364.409v-58.375h364.409v58.375zM697.013 547.606h-364.016v-58.552h364.016l-0 58.552zM693.185 396.965v59.735h-313.651c-56.815 0-56.815 0-49.812-59.735h363.463z"  horiz-adv-x="1024" />

    
    <glyph glyph-name="weibiaoti1" unicode="&#58920;" d="M962.056192 597.886976 332.204032 597.886976 332.204032 855.046144 962.056192 855.046144 820.430848 728.332288ZM272.572416 866.226176l44.722176 0 0-894.466048-44.722176 0 0 894.466048ZM110.450688-41.285632l368.965632 0 0-44.724224-368.965632 0 0 44.724224Z"  horiz-adv-x="1024" />

    
    <glyph glyph-name="chakan" unicode="&#58882;" d="M511.837 180c-184.451 0-288.003 191.997-288.003 191.997s105.523 192.003 288.003 192.003c182.474 0 287.997-192.003 287.997-192.003s-103.549-191.997-287.997-191.997zM511.833 500c-131.99 0-208.32-128.003-208.32-128.003s74.903-127.997 208.32-127.997 208.32 127.997 208.32 127.997-76.329 128.003-208.32 128.003zM511.833 308c-35.347 0-64 28.656-64 64.003 0 35.344 28.653 64 64 64s64-28.656 64-64c0-35.347-28.652-64.003-64-64.003z"  horiz-adv-x="1024" />

    
    <glyph glyph-name="msnui-task-count" unicode="&#59232;" d="M541.333 460.872c-11.826 8.571-29.679 6.203-38.686-5.011l-133.037-164.94-43.728 48.981c-9.538 10.65-27.649 12.149-38.878 3.125-5.848-4.671-9.409-11.311-10.038-18.625-0.612-7.282 1.772-14.34 6.703-19.849l65.962-73.89c5.317-5.897 13.003-9.28 21.075-9.28 0.097 0 0.612 0 0.693 0 8.361 0.193 16.144 3.963 21.316 10.344l153.902 190.864c4.641 5.768 6.637 12.922 5.671 20.141-0.967 7.314-4.866 13.758-10.956 18.141zM651.957 693.884v-299.257c11.832 1.921 23.969 2.935 36.344 2.935 6.939 0 13.8-0.332 20.58-0.946v325.705c0 15.71-12.743 28.47-28.468 28.47h-94.304c13.211-15.563 21.621-35.286 23.041-56.908h42.808zM488.899 67.866h-325.459v626.018h42.794c1.434 21.622 9.828 41.344 23.041 56.908h-94.304c-15.693 0-28.438-12.761-28.438-28.47v-682.878c0-15.757 12.744-28.486 28.438-28.486h396.485c-17.016 16.529-31.424 35.722-42.556 56.908zM304.097 619.962h207.185c35.302 0 64.046 28.712 64.046 63.998v3.448c0 2.159-0.113 4.35-0.339 6.478-2.98 29.453-25.988 52.977-55.151 56.908-2.804 0.387-5.64 0.645-8.556 0.645h-27.745v5.14c0 35.301-28.728 64.045-64.046 64.045h-23.604c-35.302 0-64.014-28.744-64.014-64.045v-5.14h-27.778c-2.9 0-5.736-0.258-8.539-0.645-29.163-3.932-52.203-27.455-55.168-56.908-0.21-2.126-0.321-4.318-0.321-6.478v-3.448c0.001-35.286 28.729-63.998 64.030-63.998zM890.585 248.886c-4.089 0-6.451 0-157.891-66.77l20.336 167.008c1.066 8.683-5.119 16.578-13.793 17.634-8.335 1.010-16.788 1.526-25.114 1.526-103.711 0-191.405-77.733-203.966-180.838-13.71-112.596 66.733-215.361 179.321-229.071 8.335-1.020 16.779-1.544 25.123-1.544 103.711 0 191.378 77.76 203.93 180.847 4.181 34.295-0.386 69.306-13.242 101.358-2.435 5.954-8.263 9.85-14.704 9.85zM887.111 141.5c-10.631-87.226-84.789-153.004-172.511-153.004-7.066 0-14.234 0.442-21.292 1.305-95.267 11.607-163.323 98.546-151.707 193.804 10.624 87.235 84.782 153.021 172.521 153.021 1.819 0 3.647-0.037 5.477-0.092l-21.704-178.235c-0.69-5.661 1.709-11.248 6.286-14.63 4.575-3.399 10.623-4.063 15.823-1.764 51.315 22.661 129.257 56.846 161.126 70.335 6.8-22.808 8.867-46.976 5.981-70.739zM939.067 314.48c-23.993 56.515-76.648 96.296-137.444 103.84-5.201 0.653-9.943-3.069-10.586-8.269l-20.052-161.568c-0.412-3.364 0.993-6.69 3.713-8.748 1.663-1.259 3.685-1.912 5.707-1.912 1.259 0 2.528 0.248 3.703 0.753l149.934 63.407c2.324 0.973 4.143 2.848 5.091 5.191 0.955 2.343 0.918 4.99-0.065 7.305z"  horiz-adv-x="1024" />

    
    <glyph glyph-name="kongwujiaoxing" unicode="&#58926;" d="M231.867-40.559l99.624 315.315-254.598 217.709 320.431 0 114.726 293.376 128.642-293.376 306.415 0-240.135-217.563 102.703-316.753-296.031 198.443-281.777-197.151zM513.135 196.173l238.918-159.045-81.227 247.129 196.015 176.486-246.748 0-106.382 242.59-94.867-242.59-258.162 0 206.984-175.878-78.211-249.078 223.678 160.386z"  horiz-adv-x="1024" />

    
    <glyph glyph-name="zhishidian" unicode="&#58908;" d="M662.402094 84.676923C606.769848 84.676923 544.630248 93.286012 512.225494 115.39652 479.820739 93.286012 417.695152 84.676923 362.05332 84.676923 282.411788 84.676923 189.43324 102.275983 189.43324 151.916122L189.43324 548.461051C189.43324 555.180706 192.357604 561.508256 197.427485 565.816169 202.496629 570.127822 208.839511 572.303105 215.465611 572.34875 230.460629 572.452015 282.094644 552.519034 364.71143 553.380317 434.789959 554.11065 463.887565 572.491674 512.225494 572.478204 569.461899 572.462491 592.636284 554.015616 665.65319 554.015616 742.42051 554.015616 807.49185 572.34875 808.539163 572.34875 816.36156 572.34875 822.941193 569.297219 827.024978 565.816169 832.094859 561.505263 835.019223 555.183699 835.019223 548.461051L835.019223 151.916122C835.018486 102.275983 742.039199 84.676923 662.402094 84.676923L662.402094 84.676923 662.402094 84.676923ZM234.321674 154.783574C243.400109 145.792855 288.236914 130.072006 362.049631 130.072006 435.852022 130.072006 480.702842 145.792107 489.781276 154.783574L493.102439 525.549872C459.853934 512.112059 409.549711 507.016197 358.072791 506.97579 318.852387 506.944361 282.105708 512.018523 235.281219 525.534906L234.321674 154.783574 234.321674 154.783574ZM788.430749 525.581299C751.922296 512.860351 707.077377 507.030415 665.537396 506.97579 637.081453 506.938374 585.974782 511.363768 534.669711 525.519193L534.669711 154.783574C543.748146 145.792855 588.589376 130.072006 662.402094 130.072006 736.214073 130.072006 779.351576 145.792107 788.430749 154.783574L788.430749 525.581299 788.430749 525.581299ZM565.510878 573.55368C566.060202 590.308062 568.1888 603.422975 571.896737 612.898814 575.604673 622.374654 581.85314 631.026376 590.642324 638.854243 599.431508 646.68211 609.250528 652.449926 620.099675 656.157861 630.948825 659.865798 642.141134 661.719739 653.676936 661.719739 678.121855 661.719739 698.103214 654.784629 713.621617 640.914197 729.140021 627.043768 736.899105 608.435696 736.899105 585.089426 736.899105 573.278961 734.564513 563.11662 729.895259 554.602097 725.226006 546.087575 715.063665 534.551944 699.40793 519.99486 682.378886 503.789801 671.941887 491.842183 668.096619 484.151647 664.251351 476.461113 662.328747 463.689522 662.328747 445.836491L633.901373 445.836491C634.450697 462.04155 637.059946 475.705779 641.7292 486.829588 646.398453 497.9534 656.629459 511.617629 672.422524 527.822687 688.215588 544.027744 698.103272 555.49471 702.085871 562.22393 706.068471 568.953149 708.059739 577.398879 708.059739 587.561371 708.059739 602.942444 703.047234 615.302048 693.022071 624.640556 682.996908 633.979064 669.470008 638.648248 652.440964 638.648248 615.636256 638.648248 595.586232 616.950275 592.290288 573.55368L565.510878 573.55368ZM665.212682 373.326087 633.489381 373.326087 633.489381 407.109344 665.212682 407.109344 665.212682 373.326087Z"  horiz-adv-x="1024" />

    
    <glyph glyph-name="59" unicode="&#58938;" d="M513.006-63.821c-120.124 0-233.052 46.778-317.993 131.714-84.949 84.948-131.727 197.883-131.727 318.007 0 120.125 46.778 233.052 131.727 317.993 84.928 84.935 197.87 131.715 317.993 131.715 120.112 0 233.052-46.778 317.994-131.714 175.348-175.354 175.334-460.661 0-635.994-84.943-84.943-197.87-131.721-317.994-131.721zM513.006 754.92c-98.573 0-191.251-38.386-260.945-108.082-69.701-69.701-108.089-162.372-108.089-260.939 0-98.574 38.387-191.244 108.088-260.952 69.709-69.694 162.372-108.081 260.945-108.081 98.574 0 191.238 38.386 260.946 108.088 143.881 143.875 143.881 377.991 0 521.885-69.708 69.694-162.383 108.081-260.945 108.081zM513.507 327.939c-22.287 0-40.344 18.063-40.344 40.343l0 224.621c0 22.279 18.057 40.344 40.344 40.344 22.286 0 40.344-18.064 40.344-40.344v-224.621c-0.001-22.279-18.058-40.343-40.344-40.343zM393.88 199.541c-10.322 0-20.644 3.94-28.524 11.812-15.759 15.759-15.759 41.303 0 57.055l119.624 119.639c15.733 15.759 41.289 15.753 57.048 0.006 15.759-15.759 15.759-41.302 0-57.055l-119.624-119.638c-7.866-7.879-18.202-11.819-28.525-11.819z"  horiz-adv-x="1024" />

    
    <glyph glyph-name="guanbifuhao" unicode="&#58916;" d="M566.125735 419.014468l339.957669-339.54323 0.603751-74.005504-413.475056 413.548734L906.83758 832.903963l0.188288-72.195276L566.125735 419.014468 566.125735 419.014468zM153.368016 5.918036l0.604774 73.893964L493.362524 418.900881 153.028279 760.028189l0.188288 72.082712L566.125735 418.900881 153.368016 5.918036 153.368016 5.918036z"  horiz-adv-x="1024" />

    
    <glyph glyph-name="bangzhu" unicode="&#58886;" d="M512 768c211.2 0 384-172.8 384-384s-172.8-384-384-384c-211.2 0-384 172.8-384 384S300.8 768 512 768M512 896C230.4 896 0 665.6 0 384s230.4-512 512-512c281.6 0 512 230.4 512 512S793.6 896 512 896L512 896zM384 448l192 0 0-64-192 0 0 64ZM448 384l128 0 0-192-128 0 0 192ZM384 192l256 0 0-64-256 0 0 64ZM512 576m-64 0a1 1 0 1 0 128 0 1 1 0 1 0-128 0Z"  horiz-adv-x="1024" />

    
    <glyph glyph-name="iconset0119" unicode="&#58898;" d="M541.866667 217.6 290.133333 217.6c-12.8 0-21.333333-8.533333-21.333333-21.333333 0-12.8 8.533333-21.333333 21.333333-21.333333l251.733333 0c12.8 0 21.333333 8.533333 21.333333 21.333333C563.2 209.066667 554.666667 217.6 541.866667 217.6zM460.8 93.866667 290.133333 93.866667c-12.8 0-21.333333-8.533333-21.333333-21.333333 0-12.8 8.533333-21.333333 21.333333-21.333333l166.4 0c12.8 0 21.333333 8.533333 21.333333 21.333333C477.866667 81.066667 469.333333 93.866667 460.8 93.866667zM290.133333 426.666667l85.333333 0c12.8 0 21.333333 8.533333 21.333333 21.333333 0 12.8-8.533333 21.333333-21.333333 21.333333l-85.333333 0c-12.8 0-21.333333-8.533333-21.333333-21.333333C273.066667 435.2 281.6 426.666667 290.133333 426.666667zM750.933333 840.533333l-311.466667 0c-46.933333 0-85.333333-38.4-85.333333-85.333333l0-64c0-12.8 8.533333-21.333333 21.333333-21.333333s21.333333 8.533333 21.333333 21.333333L396.8 759.466667c0 21.333333 17.066667 42.666667 42.666667 42.666667l251.733333 0 0-123.733333c0-21.333333 17.066667-42.666667 42.666667-42.666667L853.333333 635.733333l0-418.133333c0-21.333333-17.066667-42.666667-42.666667-42.666667l-64 0c-12.8 0-21.333333-8.533333-21.333333-21.333333 0-12.8 8.533333-21.333333 21.333333-21.333333L810.666667 132.266667c46.933333 0 85.333333 38.4 85.333333 85.333333L896 674.133333 750.933333 840.533333zM729.6 674.133333 729.6 797.866667l106.666667-123.733333L729.6 674.133333zM230.4 635.733333c-46.933333 0-85.333333-38.4-85.333333-85.333333l0-541.866667c0-46.933333 38.4-85.333333 85.333333-85.333333l375.466667 0c46.933333 0 85.333333 38.4 85.333333 85.333333L691.2 469.333333l-145.066667 166.4L230.4 635.733333zM644.266667 8.533333c0-21.333333-17.066667-42.666667-42.666667-42.666667L230.4-34.133333c-21.333333 0-42.666667 17.066667-42.666667 42.666667L187.733333 550.4c0 21.333333 17.066667 42.666667 42.666667 42.666667l251.733333 0L482.133333 469.333333c0-21.333333 17.066667-42.666667 42.666667-42.666667l123.733333 0L648.533333 8.533333zM520.533333 469.333333 520.533333 588.8l106.666667-123.733333L520.533333 465.066667zM273.066667 320c0-12.8 8.533333-21.333333 21.333333-21.333333l251.733333 0c12.8 0 21.333333 8.533333 21.333333 21.333333 0 12.8-8.533333 21.333333-21.333333 21.333333L290.133333 341.333333C281.6 341.333333 273.066667 332.8 273.066667 320z"  horiz-adv-x="1024" />

    
    <glyph glyph-name="bangzhu1" unicode="&#58930;" d="M776.2 809 247.8 809c-50.8 0-91.9-41.2-91.9-91.9l0-666.3c0-50.8 41.2-91.9 91.9-91.9l528.4 0c50.8 0 91.9 41.1 91.9 91.9l0 666.2C868.1 767.8 827 809 776.2 809L776.2 809zM822.1 50.9c0-25.3-20.6-45.9-45.9-45.9l-528.4 0c-25.3 0-45.9 20.6-45.9 45.9L201.9 717.1c0 25.3 20.6 45.9 45.9 45.9l528.4 0c25.3 0 45.9-20.6 45.9-45.9L822.1 50.9zM651.1 488.2c0 62.7-62.1 113.5-138.7 113.5-24 0-42.8-1.3-72.5-16.8-29.7-15.4-60.5-46.5-66.7-91.8-2.2-15.8 6.7-33.6 24.6-33.6 17.9 0 25.7 9.9 25.8 24.9 0 27.1 10.8 45.4 35.8 58.1 13.9 8.2 34.5 13.4 57.6 13.4 23.9 0 58.3-10.3 72-25.3 13.6-15.1 18.8-24.6 19.3-39.3 1.5-45-52.5-64.6-79.4-91.9-21.5-21.7-36.3-45.7-41.2-57.9-4.8-12.3-4-21.3-4-32.4 0-1.5 0-8.7 0-8.7 0.6-12.3 11.6-24 24.8-24 13.1 0 25.4 10.8 25.1 24.5 0.1 0.2 0 13.1 0 14.6 0.6 13.2 2.5 22.8 5.5 29 4.1 8.2 14.8 18.9 31.9 32.2 33.1 25.8 54.7 46.2 64.8 61.2C646 453 651.1 470.1 651.1 488.2L651.1 488.2zM511 200.3m-34 0a34 34 0 1 0 68 0 34 34 0 1 0-68 0Z"  horiz-adv-x="1024" />

    
    <glyph glyph-name="zhuanxierizhi" unicode="&#58975;" d="M932.303-10.755h-196.997c-14.145 0-25.611 11.466-25.611 25.611l0 552.517c0 4.174 1.020 8.285 2.972 11.975l98.498 186.223c4.437 8.389 13.149 13.637 22.64 13.637s18.203-5.248 22.64-13.637l98.499-186.223c1.951-3.689 2.972-7.801 2.972-11.975v-552.516c0-14.146-11.466-25.612-25.612-25.612zM760.918 40.469h145.774l0 520.548-72.888 137.801-72.887-137.801-0-520.548zM833.804 511.053c-2.571 0-5.14 0.387-7.623 1.16l-98.498 30.708c-13.504 4.21-21.039 18.57-16.828 32.073 4.211 13.506 18.571 21.042 32.075 16.828l90.876-28.332 90.877 28.332c13.502 4.21 27.864-3.325 32.075-16.828s-3.325-27.864-16.828-32.073l-98.499-30.708c-2.484-0.774-5.054-1.16-7.625-1.16zM932.303 99.744h-196.997c-14.145 0-25.611 11.466-25.611 25.611s11.466 25.611 25.611 25.611h196.998c14.145 0 25.611-11.466 25.611-25.611s-11.466-25.611-25.612-25.611zM634.758-10.755h-541.742c-14.145 0-25.611 11.466-25.611 25.611l0 738.74c0 14.145 11.467 25.611 25.611 25.611h541.742c14.145 0 25.611-11.467 25.611-25.611v-738.739c-0-14.146-11.466-25.612-25.611-25.612zM118.627 40.469h490.519v687.515h-490.519v-687.515zM536.261 422.913h-341.26c-14.145 0-25.611 11.467-25.611 25.611s11.467 25.611 25.611 25.611h341.26c14.145 0 25.611-11.467 25.611-25.611s-11.466-25.611-25.611-25.611zM536.261 549.461h-341.26c-14.145 0-25.611 11.467-25.611 25.611s11.467 25.611 25.611 25.611h341.26c14.145 0 25.611-11.467 25.611-25.611s-11.466-25.611-25.611-25.611zM536.261 296.364h-341.26c-14.145 0-25.611 11.466-25.611 25.611s11.467 25.611 25.611 25.611h341.26c14.145 0 25.611-11.466 25.611-25.611s-11.466-25.611-25.611-25.611zM536.261 169.815h-341.26c-14.145 0-25.611 11.466-25.611 25.611s11.467 25.611 25.611 25.611h341.26c14.145 0 25.611-11.466 25.611-25.611s-11.466-25.611-25.611-25.611z"  horiz-adv-x="1024" />

    
    <glyph glyph-name="chakan1" unicode="&#58924;" d="M510.991532-60.967304c246.266823 0 445.905676 199.63783 445.905676 445.905676 0 246.266823-199.63783 445.905676-445.905676 445.905676-246.266823 0-445.905676-199.63783-445.905676-445.905676C65.085856 138.671549 264.723685-60.967304 510.991532-60.967304zM371.64588 106.247068 371.64588 607.89121l390.167211-250.821559L371.64588 106.247068 371.64588 106.247068z"  horiz-adv-x="1024" />

    
    <glyph glyph-name="shezhi" unicode="&#58911;" d="M930.508 278.259l-69.377 40.39c3.89 21.209 6.442 42.879 6.442 65.233 0 22.36-2.554 44.030-6.444 65.242l69.378 40.393c28.339 16.496 38.050 53.037 21.688 81.61l-59.25 103.483c-16.362 28.578-52.6 38.369-80.941 21.87l-70.090-40.803c-32.749 28.11-69.973 51.079-111.347 65.85v50.703c0 32.997-26.528 59.749-59.251 59.749l-118.504-0c-32.723 0-59.251-26.752-59.251-59.749v-50.703c-41.374-14.771-78.599-37.74-111.348-65.85l-70.089 40.803c-28.341 16.499-64.578 6.708-80.938-21.87l-59.254-103.483c-16.361-28.573-6.651-65.114 21.688-81.61l69.378-40.39c-3.89-21.214-6.441-42.884-6.441-65.244 0-22.353 2.551-44.026 6.441-65.233l-69.378-40.39c-28.338-16.496-38.049-53.037-21.688-81.613l59.254-103.483c16.361-28.571 52.598-38.364 80.938-21.868l70.088 40.807c32.749-28.11 69.974-51.081 111.349-65.853v-50.708c0-32.994 26.528-59.747 59.251-59.747l118.506 0c32.723 0 59.251 26.752 59.251 59.747v50.708c41.375 14.77 78.599 37.742 111.348 65.853l70.089-40.807c28.341-16.496 64.58-6.703 80.941 21.868l59.25 103.483c16.361 28.575 6.651 65.116-21.689 81.612zM886.070 200.649l-29.626-51.738c-8.181-14.29-26.301-19.186-40.472-10.933l-82.311 47.918c-41.783-47.521-98.246-81.611-162.347-94.734v-65.747c0-16.496-13.263-29.872-29.627-29.872h-59.251c-16.364 0-29.627 13.376-29.627 29.872v65.747c-64.101 13.123-120.564 47.211-162.347 94.734l-82.312-47.918c-14.169-8.253-32.288-3.357-40.47 10.933l-29.625 51.738c-8.181 14.287-3.326 32.556 10.843 40.805l82.642 48.114c-9.844 29.717-15.739 61.258-15.739 94.314 0 33.063 5.896 64.605 15.74 94.325l-82.644 48.112c-14.169 8.248-19.025 26.522-10.843 40.805l29.625 51.742c8.181 14.285 26.301 19.183 40.47 10.937l82.315-47.924c41.783 47.524 98.245 81.615 162.344 94.738v65.745c0 16.499 13.263 29.867 29.627 29.867h59.251c16.364 0 29.627-13.369 29.627-29.867v-65.745c64.1-13.123 120.563-47.214 162.344-94.738l82.313 47.924c14.17 8.246 32.289 3.348 40.472-10.937l29.626-51.742c8.18-14.283 3.326-32.556-10.843-40.805l-82.645-48.114c9.845-29.72 15.739-61.26 15.739-94.323 0-33.056-5.893-64.596-15.739-94.314l82.645-48.114c14.169-8.249 19.023-26.518 10.843-40.805zM511.706 576.137c-105.974 0-191.882-85.909-191.882-191.882s85.909-191.882 191.882-191.882 191.882 85.909 191.882 191.882-85.909 191.882-191.882 191.882zM511.706 256.333c-70.649 0-127.921 57.272-127.921 127.921s57.272 127.921 127.921 127.921 127.921-57.272 127.921-127.921-57.272-127.921-127.921-127.921z"  horiz-adv-x="1024" />

    
    <glyph glyph-name="sanjiaoxingtriangular30" unicode="&#59145;" d="M892.86656 106.0352 543.03744 711.94624c-6.4 11.08992-18.23744 17.92-31.03744 17.92s-24.63744-6.83008-31.03744-17.92L129.39264 103.02464c-6.4-11.08992-6.4-24.75008 0-35.84s18.23744-17.92 31.03744-17.92l703.13984 0c0.07168 0 0.1536-0.01024 0.2048 0 19.80416 0 35.84 16.04608 35.84 35.84C899.61472 92.91776 897.10592 100.1472 892.86656 106.0352zM222.50496 120.94464 512 622.34624l289.49504-501.41184L222.50496 120.9344zM493.50656 501.28896l37.18144 0c3.05152 0 5.98016-1.2288 8.12032-3.42016 2.12992-2.2016 3.28704-5.15072 3.20512-8.21248l-7.4752-234.61888c-0.1536-6.15424-5.19168-11.04896-11.33568-11.04896l-22.20032 0c-6.15424 0-11.19232 4.90496-11.33568 11.04896l-7.4752 234.61888c-0.08192 3.06176 1.0752 6.01088 3.20512 8.21248C487.5264 500.06016 490.45504 501.28896 493.50656 501.28896zM541.5424 212.84864l0-42.47552c0-6.25664-5.0688-11.33568-11.33568-11.33568l-36.1984 0c-6.26688 0-11.33568 5.07904-11.33568 11.33568l0 42.47552c0 6.25664 5.0688 11.33568 11.33568 11.33568l36.1984 0C536.4736 224.19456 541.5424 219.10528 541.5424 212.84864z"  horiz-adv-x="1024" />

    
    <glyph glyph-name="wendangdocument84" unicode="&#59195;" d="M670.26944 778.67008 269.568 778.67008c-26.90048 0-48.81408-21.92384-48.81408-48.82432l0-698.50112c0-26.9312 21.9136-48.82432 48.81408-48.82432l490.82368 0c26.9312 0 48.82432 21.89312 48.82432 48.82432L809.216 627.70176 670.26944 778.67008zM681.78944 705.60768l60.90752-66.18112-60.90752 0L681.78944 705.60768zM768.21504 31.35488c0-4.31104-3.52256-7.8336-7.8336-7.8336L269.568 23.52128c-4.31104 0-7.81312 3.52256-7.81312 7.8336L261.75488 729.84576c0 4.31104 3.50208 7.80288 7.81312 7.80288l371.21024 0 0-118.7328c0-11.30496 9.20576-20.46976 20.51072-20.46976l106.92608 0L768.21504 31.35488zM355.20512 564.93056 726.8352 564.93056l0-20.48L355.20512 544.45056l0-105.82016L726.8352 438.6304l0-20.48L355.20512 418.1504l0-102.4L726.8352 315.7504l0-20.48L355.20512 295.2704l0-96.41984L726.8352 198.85056l0-20.48L355.20512 178.37056l0-57.16992-20.48 0 0 57.16992-37.51936 0 0 20.48 37.51936 0 0 96.41984-37.51936 0 0 20.48 37.51936 0 0 102.4-37.51936 0 0 20.48 37.51936 0L334.72512 544.45056l-37.51936 0 0 20.48 37.51936 0 0 68.27008 20.48 0L355.20512 564.93056z"  horiz-adv-x="1024" />

    
    <glyph glyph-name="2guanbi" unicode="&#58914;" d="M511.997954-126.977242c-69.038236 0-136.025841 13.528025-199.10344 40.206677-60.911398 25.763283-115.608515 62.639859-162.57358 109.604924-46.964042 46.965064-83.840617 101.662182-109.603901 162.57358C14.036336 248.485539 0.509334 315.473144 0.509334 384.511379s13.527002 136.025841 40.206677 199.10344c25.763283 60.911398 62.639859 115.608515 109.604924 162.57358 46.964042 46.965064 101.662182 83.84164 162.57358 109.604924 63.0776 26.679675 130.065205 40.206677 199.10344 40.206677S648.023795 882.472998 711.101395 855.793323c60.911398-25.763283 115.608515-62.639859 162.57358-109.603901 46.965064-46.965064 83.84164-101.662182 109.604924-162.57358 26.679675-63.0776 40.206677-130.065205 40.206677-199.10344s-13.528025-136.025841-40.206677-199.10344c-25.763283-60.911398-62.639859-115.608515-109.604924-162.57358-46.965064-46.965064-101.662182-83.84164-162.57358-109.604924C648.023795-113.449217 581.03619-126.977242 511.997954-126.977242zM511.997954 837.629134c-61.183451 0-120.520824-11.976501-176.364454-35.596082C281.679929 779.212244 233.218569 746.53716 191.595371 704.913962c-41.623197-41.623197-74.298282-90.084557-97.118067-144.03813-23.619582-55.84363-35.596082-115.181002-35.596082-176.364454s11.976501-120.520824 35.596082-176.364454c22.820808-53.95255 55.495892-102.414932 97.119089-144.03813 41.623197-41.622175 90.084557-74.298282 144.037107-97.118067 55.84363-23.619582 115.181002-35.597105 176.364454-35.597105 61.183451 0 120.520824 11.976501 176.364454 35.597105 53.95255 22.819785 102.414932 55.495892 144.03813 97.118067 41.622175 41.623197 74.298282 90.08558 97.118067 144.03813 23.619582 55.84363 35.597105 115.181002 35.597105 176.364454s-11.976501 120.520824-35.597105 176.364454c-22.819785 53.953572-55.495892 102.414932-97.118067 144.037107-41.623197 41.623197-90.08558 74.298282-144.03813 97.119089C632.518778 825.652634 573.181406 837.629134 511.997954 837.629134zM556.654653 384.511379l201.181685 201.181685c12.311965 12.311965 12.311965 32.344733 0 44.656699-12.311965 12.311965-32.346779 12.310943-44.656699 0L511.997954 429.168078 310.816269 630.350786c-12.311965 12.310943-32.344733 12.310943-44.656699 0-12.311965-12.311965-12.311965-32.344733 0-44.657722L467.341256 384.511379 266.15957 183.328671c-5.942226-5.942226-9.215053-13.870649-9.215053-22.327838 0-8.456166 3.272827-16.385612 9.215053-22.327838 6.155983-6.155983 14.24191-9.233463 22.328861-9.233463s16.171855 3.078503 22.328861 9.233463l201.181685 201.181685 201.181685-201.181685c6.155983-6.155983 14.24191-9.233463 22.327838-9.233463 8.08695 0 16.172878 3.078503 22.328861 9.233463 12.311965 12.311965 12.311965 32.344733 0 44.655676L556.654653 384.511379z"  horiz-adv-x="1024" />

    
    <glyph glyph-name="cuoti" unicode="&#58962;" d="M767.967364 825.478431 179.242427 825.478431c-38.395105 0-70.391025-31.995921-70.391025-70.391025l0-806.297197c0-38.395105 31.995921-70.391025 70.391025-70.391025l441.543703 0 223.971444 217.57226L844.757573 748.688222C844.757573 793.482511 812.761653 825.478431 767.967364 825.478431zM339.222029 383.934728c0 0-6.399184 0-6.399184 0S326.423661 383.934728 320.024477 383.934728C320.024477 390.333912 320.024477 396.733097 320.024477 396.733097l140.78205 147.181234L320.024477 684.696381C320.024477 691.095565 320.024477 697.494749 320.024477 703.893934 326.423661 703.893934 332.822845 703.893934 339.222029 703.893934l140.78205-147.181234L620.78613 703.893934C627.185314 703.893934 633.584498 703.893934 639.983682 703.893934 639.983682 697.494749 639.983682 691.095565 639.983682 684.696381L492.802448 543.914331 639.983682 396.733097C639.983682 396.733097 639.983682 390.333912 639.983682 383.934728c0 0-6.399184 0-6.399184 0S627.185314 383.934728 620.78613 383.934728L480.004079 531.115963 339.222029 383.934728zM787.164916 95.971444l-179.177155-179.177155c-31.995921-31.995921-25.596736 25.596736-25.596736 25.596736l0 147.181234C582.391025 127.967364 620.78613 127.967364 620.78613 127.967364l153.580418 0C831.959205 127.967364 787.164916 95.971444 787.164916 95.971444zM844.757573 895.869457 294.42774 895.869457C249.633452 895.869457 256.032636 857.474352 256.032636 857.474352l550.329833 0c76.790209 0 70.391025-70.391025 70.391025-70.391025l0-697.511067c38.395105 0 38.395105 38.395105 38.395105 38.395105L915.148599 825.478431C915.148599 902.268641 844.757573 895.869457 844.757573 895.869457z"  horiz-adv-x="1024" />

    
    <glyph glyph-name="biaoqian1" unicode="&#59338;" d="M864 768 545.28 768C534.4 769.92 522.88 766.72 514.56 758.4l-441.6-441.6C65.28 309.12 62.72 298.88 63.36 289.28 62.72 279.04 65.28 268.8 72.96 261.12l313.6-313.6c7.68-7.68 17.92-10.88 27.52-9.6 10.24-1.28 21.12 1.92 28.8 9.6l441.6 441.6c3.84 3.84 6.4 8.96 8.32 14.08C894.72 407.04 896 411.52 896 416l0 320C896 753.92 881.92 768 864 768zM832 435.84 414.72 19.2 144.64 289.28 560 704 832 704 832 435.84zM640 448c35.2 0 64 28.8 64 64 0 35.2-28.8 64-64 64C604.8 576 576 547.2 576 512 576 476.8 604.8 448 640 448z"  horiz-adv-x="1024" />

    
    <glyph glyph-name="zhishichanquanguanli" unicode="&#58955;" d="M27.375 132.122c-6.34 3.515-10.93 9.295-12.927 16.26-1.992 6.975-1.152 14.305 2.367 20.65 4.777 8.61 13.877 13.965 23.747 13.965 4.58 0 9.125-1.175 13.145-3.395l429.731-238.404 465.389 151.905c18.73 38.705 23.52 77.115 14.235 114.225-5.010 20-13.16 34.84-17.945 42.39l-469.436-160.42-448.401 251.208c-13.057 7.32-17.727 23.895-10.415 36.945 4.79 8.56 13.87 13.88 23.692 13.88 4.622 0 9.207-1.2 13.255-3.47l427.254-239.349 467.941 159.905c20.395 33.79 23.695 69.885 9.805 107.34-7.115 19.152-17.36 34.567-24.065 43.467l-458.798-165.128-448.724 250.237c-6.33 3.53-10.91 9.315-12.887 16.287-1.982 6.977-1.127 14.305 2.407 20.637 4.78 8.585 13.87 13.925 23.715 13.925 4.602 0 9.17-1.19 13.202-3.44l427.146-238.207 459.154 165.262c25.2 40.557 31.735 80.17 19.415 117.777-3.98 12.125-9.41 22.237-14.235 29.757l-469.038-178.050-476.104 259.309 524.424 133.31 441.174-154.7 4.235-4.040c2.785-2.665 27.52-27.147 41.135-68.68 12.51-38.182 17.58-98.085-28.015-168.225 8.325-11.887 18.49-28.802 26.255-49.285 20.925-55.225 15.21-110.415-16.46-160.025 6.78-11.16 16.26-29.6 22.495-53.55 9.715-37.32 13.535-96.16-23.495-164.56l-5.165-9.51-508.784-166.085-450.424 249.882zM480.161 547.896l398.497 151.267-90.545 31.745-396.404-134.837 88.452-48.175z"  horiz-adv-x="1024" />

    
    <glyph glyph-name="shijian" unicode="&#58932;" d="M544.269755 345.238707l-67.805709 0c-0.883445 0-1.600415 0.71697-1.600415 1.600415L474.863631 708.604385c0 0.883445 0.71697 1.600415 1.599394 1.600415l67.805709 0c0.883445 0 1.600415-0.71697 1.600415-1.600415L545.869149 346.839122C545.869149 345.954655 545.153201 345.238707 544.269755 345.238707zM477.471072 346.706349l0 52.21009c0 0.680202 0.551515 1.231717 1.231717 1.231717l354.690551 0c0.680202 0 1.231717-0.551515 1.231717-1.231717l0-52.21009c0-0.680202-0.551515-1.231717-1.231717-1.231717L478.702789 345.474632C478.021566 345.473611 477.471072 346.025126 477.471072 346.706349zM512.262478 896c-282.350163 0-511.235028-228.888951-511.235028-511.235028 0-282.350163 228.885887-511.235028 511.235028-511.235028 282.345056 0 511.235028 228.885887 511.235028 511.235028C1023.497507 667.113092 794.605492 896 512.262478 896zM512.262478-69.666051c-250.978149 0-454.431023 203.456959-454.431023 454.431023S261.284329 839.197016 512.262478 839.197016c250.975085 0 454.431023-203.456959 454.431023-454.431023S763.236542-69.666051 512.262478-69.666051z"  horiz-adv-x="1024" />

    
    <glyph glyph-name="atistics" unicode="&#58887;" d="M334.016 705.984h129.984v-833.984h-129.984v833.984zM528 456h129.984v-584h-129.984v584zM720 515.968h62.016v-643.968h-62.016v643.968zM206.016 456h62.016v-584h-62.016v584zM80 193.984h62.016v-321.984h-62.016v321.984zM845.312 259.968h62.016v-387.968h-62.016v387.968z"  horiz-adv-x="1024" />

    
    <glyph glyph-name="circle" unicode="&#58959;" d="M62 384c0-248.528 201.472-450 450-450s450 201.472 450 450c0 248.528-201.472 450-450 450-248.528 0-450-201.472-450-450z"  horiz-adv-x="1024" />

    
    <glyph glyph-name="zheng-triangle" unicode="&#58961;" d="M71.675 2.67l440.325 762.683 440.325-762.683z"  horiz-adv-x="1024" />

    
    <glyph glyph-name="jibenxinxi" unicode="&#58901;" d="M344.440262 455.811536l335.116407 0c13.20679 0 23.938202 10.718109 23.938202 23.936155 0 13.231349-10.730389 23.949458-23.938202 23.949458L344.440262 503.697149c-13.230326 0-23.937179-10.718109-23.937179-23.949458C320.503083 466.528622 331.209936 455.811536 344.440262 455.811536zM440.187953 623.380996l143.621025 0c39.646975 0 71.810512 32.129768 71.810512 71.799256 0 39.668465-32.163537 71.810512-71.810512 71.810512l-143.621025 0c-39.644929 0-71.810512-32.142048-71.810512-71.810512C368.37744 655.510764 400.543024 623.380996 440.187953 623.380996zM440.187953 719.116407l143.621025 0c13.20679 0 23.938202-10.705829 23.938202-23.936155 0-13.218046-10.730389-23.938202-23.938202-23.938202l-143.621025 0c-13.230326 0-23.937179 10.719132-23.937179 23.938202C416.250774 708.409554 426.957627 719.116407 440.187953 719.116407zM703.49487 336.137922c0 13.218046-10.730389 23.924899-23.938202 23.924899L344.440262 360.062821c-13.230326 0-23.937179-10.706853-23.937179-23.924899 0-13.230326 10.705829-23.937179 23.937179-23.937179l335.116407 0C692.763458 312.201767 703.49487 322.90862 703.49487 336.137922zM775.30436 719.116407l-71.810512 0 0-47.874357 71.810512 0c13.230326 0 23.937179-10.705829 23.937179-23.936155l0-574.4841c0-13.220093-10.706853-23.938202-23.937179-23.938202L248.69257 48.883593c-13.231349 0-23.936155 10.718109-23.936155 23.938202l0 574.4841c0 13.230326 10.704806 23.936155 23.936155 23.936155l71.810512 0 0 47.874357-71.810512 0c-39.645952 0-71.810512-32.153304-71.810512-71.810512l0-574.4841c0-39.670511 32.16456-71.813582 71.810512-71.813582l526.611789 0c39.643905 0 71.810512 32.143071 71.810512 71.813582l0 574.4841C847.114872 686.963103 814.949288 719.116407 775.30436 719.116407zM344.440262 216.44282c-13.230326 0-23.937179-10.706853-23.937179-23.938202 0-13.220093 10.705829-23.924899 23.937179-23.924899l191.496405 0c13.230326 0 23.936155 10.704806 23.936155 23.924899 0 13.231349-10.705829 23.938202-23.936155 23.938202L344.440262 216.44282z"  horiz-adv-x="1024" />

    
    <glyph glyph-name="changyonggongju2" unicode="&#58963;" d="M520.549 271.792l47.745-48.45-30.655-31.885c0 0-22.395-24.53 6.78-55.805l240.204-248.354c0 0 22.985-21.465 48.335-3.065l120.25 121.42c0 0 21.22 29.43-7.08 56.415L707.998 307.352c0 0-25.94 26.37-54.82 3.68l-31.24-33.11-50.1 51.51L520.549 271.792 520.549 271.792zM487.539 414.669 229.952 678.968 229.952 760.53 77.875 854.353 2.62 778.315l91.76-152.085 80.75-0.608 254.052-260.012 58.357 49.06L487.539 414.669zM71.98-29.918c0 0 0 40.475 40.67 40.475 0 0 36.547-1.23 37.725-40.475 0 0-1.177-36.79-39.197-39.245l-33.892-34.955c0 0 49.515-47.835 105.512 0l459.176 512.036c0 0 50.105-34.947 125.555-34.337 0 0 92.155-3.68 164.455 61.732 0 0 141.08 115.082 68.775 295.164L836.493 565.321 697.378 708.406 861.643 871.93c0 0-104.525 63.777-245.994-28.617 0 0-73.095-53.142-95.105-148.807 0 0-33.002-113.65 40.875-215.857L45.062 37.942c0 0-32.222-32.7-16.505-80.94L71.98-29.918 71.98-29.918zM71.98-29.918c0 0 3.14-38.43 39.2-39.245l-33.892-34.955c0 0-44.572 39.81-48.725 61.12l43.42 13.08L71.98-29.918z"  horiz-adv-x="1024" />

    
    <glyph glyph-name="bofang" unicode="&#58918;" d="M832.0064 384 192 0 192 768 832.0064 384 832.0064 384zM832.0064 384"  horiz-adv-x="1024" />

    
    <glyph glyph-name="chakan2" unicode="&#58894;" d="M512 658.2848C237.7152 658.2848 128 384 128 384s109.7152-274.2912 384-274.2912S896 384 896 384 786.2848 658.2848 512 658.2848L512 658.2848zM512 219.424c-90.8544 0-164.5696 73.664-164.5696 164.576 0 90.9056 73.7152 164.5696 164.5696 164.5696S676.5696 474.912 676.5696 384C676.5696 293.088 602.8544 219.424 512 219.424L512 219.424zM512 219.424M594.2784 384c0-45.4272-36.8512-82.2912-82.2784-82.2912S429.7216 338.5728 429.7216 384c0 45.4272 36.8512 82.2784 82.2784 82.2784C557.4336 466.2912 594.2784 429.4336 594.2784 384L594.2784 384zM594.2784 384"  horiz-adv-x="1024" />

    
    <glyph glyph-name="dazuoye" unicode="&#58899;" d="M863.6416 267.0208c51.0464 61.3376 33.8752 77.1776 2.0224 109.3056-24.7872 24.9984-45.0176 46.848-107.7184-2.7392L863.6416 267.0208 863.6416 267.0208zM863.6416 267.0208M726.5984 346.1248c-5.3824-5.1136-10.976-10.5984-16.896-16.5312-1.12-1.1456-165.6064-167.0208-165.6064-167.0208-23.3344-22.0864-62.1312-146.1504-48.7296-159.6608 13.3888-13.4912 135.1808 22.848 157.7536 48.6016 0 0 164.8704 166.24 166.1888 167.5584 5.8816 5.9392 11.36 11.584 16.48 16.9472L726.5984 346.1248 726.5984 346.1248zM726.5984 346.1248M534.016 185.4528 534.016 558.8992c37.4336 50.4 135.5904 81.312 210.0288 81.312l0-195.0208 1.024-0.7936c20.576 10.1056 50.144 17.664 86.176 7.7696C831.1616 596.7232 831.072 768 831.072 768s-254.1504-11.3152-351.2512-117.2928C382.7136 756.6848 128.5696 768 128.5696 768s-0.352-513.0752-0.352-554.624c0-89.2992 78.1184-85.3376 78.1184-85.3376 78.1184-10.6752 136.7104-32.0256 136.7104-32.0256S439.84 58.8864 460.3072 0l11.9168 0C466.2336 38.5408 467.8976 109.9776 534.016 185.4528zM425.6192 170.496c-76.0384 52.7744-193.5104 63.232-193.5104 63.232s-16.5248 0-16.5248 18.08L215.584 640.2112c74.4384 0 172.608-30.912 210.0288-81.312L425.6128 170.496z"  horiz-adv-x="1024" />

    
    <glyph glyph-name="maikefeng" unicode="&#58976;" d="M511.752 825.5c-86.605 0-156.835-69.734-156.835-155.747l0-273.812c0-86.013 70.23-155.748 156.835-155.748 86.602 0 156.832 69.735 156.832 155.748L668.584 669.753C668.584 755.766 598.354 825.5 511.752 825.5L511.752 825.5 511.752 825.5zM243.854 434.898c-18.051 0-32.649-14.496-32.649-32.451 0-2.269 0.197-4.436 0.689-6.506l-0.689 0c0-151.605 113.922-276.578 261.386-295.713l0-80.687-52.275 0c-21.702 0-39.257-17.458-39.257-38.964 0-21.499 17.555-38.957 39.257-38.957l182.969 0c21.701 0 39.256 17.458 39.256 38.957 0 21.506-17.555 38.964-39.256 38.964L551.01 19.541l0 80.687c143.119 18.543 254.383 137.002 260.691 282.688 0.396 2.072 0.695 4.243 0.695 6.512 0 0.79-0.197 1.479-0.197 2.167 0 1.483 0.197 2.86 0.197 4.345l-0.695 0c-3.058 14.795-16.172 25.94-32.057 25.94-15.782 0-28.999-11.145-32.057-25.94l-0.688 0c0-129.019-105.344-233.572-235.249-233.572-129.903 0-235.249 104.554-235.249 233.572l-0.689 0c0.396 2.07 0.689 4.237 0.689 6.506C276.503 420.402 261.906 434.898 243.854 434.898L243.854 434.898 243.854 434.898zM243.854 434.898"  horiz-adv-x="1024" />

    
    <glyph glyph-name="tianxie" unicode="&#58931;" d="M945.031461 355.002572c-1.234107 6.404873-3.177366 12.841469-5.691629 18.641569l-0.156566 0.367367-0.172939 0.348947c-6.092765 13.434987-14.518668 26.183336-25.072025 37.892005-11.038404 12.275581-21.649066 21.051455-32.446993 26.867928-5.655813 2.944052-11.337209 5.251607-17.885346 7.293103-7.699356 2.335185-15.366989 3.622504-23.25361 3.973498-1.337461 0.048095-2.231831 0.064468-3.125177 0.064468-8.127098 0-16.338107-1.261737-24.419156-3.767813-9.475815-2.917446-18.597567-7.854898-27.064402-14.636349l-0.51063-0.410346-0.497327-0.424672c-4.164856-3.536546-8.974395-7.957229-14.32117-13.126972-4.812609-4.700045-8.889461-8.587586-12.313443-11.827373l-3.532453-3.369747-0.12075 0.118704-2.576685-2.667759-27.251667-25.866111 1.081635-1.109264-2.188852-2.275833-95.40693-98.397031-35.953863-37.084617-32.383548-33.422204c-9.936303-10.225899-18.256806-18.851347-24.894993-25.914206l-10.682293-11.212366-1.500167-1.578961c-6.182816-6.361895-11.18576-12.57234-15.047718-18.727527-3.177366-4.998851-6.152117-10.637268-8.740058-16.642029-2.487657-5.024433-4.897543-11.325953-7.823176-20.37198-2.503007-7.692193-5.090948-16.204054-7.761778-25.471115-2.539846-8.80862-4.943592-17.320481-7.227612-25.589818-2.927679-10.803044-4.589528-18.356067-5.456269-24.685215-3.02694-20.246113 0.782829-37.7293 11.398608-51.367925 6.360871-8.000208 20.253276-20.759813 45.185108-20.759813 3.098571 0 6.350638 0.189312 9.689686 0.565888l0.893346 0.102331 0.893346 0.151449c5.315052 0.846274 12.072967 2.403746 21.893636 5.039783 8.352225 2.25332 17.237593 4.948709 27.173896 8.231475 9.318226 3.122107 18.255783 6.30152 26.749224 9.513678 9.204639 3.542686 16.207124 6.54609 21.606087 9.230222 7.087419 3.294023 13.903661 7.53051 20.259416 12.613272 4.249791 3.326768 8.153704 6.619768 11.675924 9.871835 2.984984 2.538823 6.591115 6.139837 13.678534 13.396101 6.407943 6.646374 14.290471 14.856359 23.796986 24.77629 8.609075 9.072633 18.554588 19.255553 31.397081 32.199353l0.26606 0.264013 0.25685 0.281409 35.514865 37.038568 95.260597 98.253768 30.79026 31.746028-0.104377 0.102331 0.354064 0.317225c2.697435 2.431376 5.67014 5.273097 8.79634 8.468882 1.888 1.951445 4.119831 4.177136 6.675026 6.685259 3.083222 3.056616 6.490831 6.457062 10.268878 10.350742l0.653893 0.662079 0.611937 0.684592c7.003508 7.854898 12.30321 16.548908 15.736403 25.849738 3.366677 8.981559 5.102205 18.447141 5.102205 27.966958C947.106726 341.332225 946.410877 348.328569 945.031461 355.002572L945.031461 355.002572zM741.934856 154.783505l-35.514865-37.034475c-11.80179-11.896958-22.458501-22.786982-31.934317-32.765241-9.454326-9.875928-17.301038-18.031679-23.509437-24.464181-6.235005-6.392594-9.931187-10.085706-11.112082-10.937097-2.936889-2.78237-6.350638-5.666046-10.202363-8.6848-3.830235-3.062755-7.824199-5.525853-11.973706-7.402597-4.160763-2.106987-10.202363-4.689812-18.184151-7.767917-7.997138-3.012613-16.349363-5.988388-25.072025-8.916067-8.723685-2.888793-17.018605-5.4225-24.863271-7.534604-7.840572-2.109034-13.673417-3.499707-17.541515-4.119831-1.735527-0.204661-3.340071-0.291642-4.817726-0.291642-5.337565 0-9.058306 1.299599-11.147898 3.930519-2.65548 3.412726-3.39226 9.024537-2.217505 16.931624 0.586354 4.28049 2.001587 10.463306 4.202719 18.582217 2.242064 8.102538 4.589528 16.436344 7.103792 25.12626 2.514263 8.732895 4.943592 16.744359 7.316639 24.042579 2.37407 7.326872 4.290723 12.366655 5.78168 15.110139 1.766226 4.259 3.767813 8.157797 5.999644 11.655458 2.196015 3.5038 5.393847 7.390317 9.528004 11.654434 1.787716 1.86958 5.938246 6.194072 12.444427 13.056364 6.490831 6.91141 14.630209 15.347546 24.407899 25.406646l32.383548 33.411971 35.944654 37.08871 95.405907 98.404194 83.003436-86.053911L741.934856 154.783505 741.934856 154.783505zM901.248282 322.328405c-1.474584-3.982708-3.832282-7.77815-7.103792-11.43954-3.533476-3.64911-6.726192-6.824429-9.544377-9.617032-2.785439-2.732228-5.226025-5.185093-7.312546-7.324826-2.356674-2.415003-4.588505-4.572132-6.638187-6.399757l-83.004459 85.584214c3.553942 3.368724 7.788383 7.395434 12.648065 12.145621 4.882194 4.731768 8.959046 8.452509 12.215206 11.222599 4.129041 3.310396 8.436136 5.709025 12.857842 7.078209 4.01443 1.246387 7.979742 1.860371 11.859096 1.860371 0.408299 0 0.819668 0 1.234107-0.016373 4.275373-0.188288 8.435113-0.846274 12.417821-2.053776 4.003174-1.25048 7.469112-2.619664 10.42135-4.15667 6.235005-3.357468 13.119809-9.202593 20.661575-17.584494 7.557116-8.393157 13.364379-17.169031 17.529235-26.339902 1.192152-2.759857 2.143826-5.950526 2.854001-9.618055 0.75213-3.659343 1.12359-7.454786 1.12359-11.444657C903.469879 330.275401 902.748449 326.31316 901.248282 322.328405L901.248282 322.328405zM901.248282 322.328405M376.844787 8.90916 192.511525 8.90916c-31.668257 0-57.43613 26.576285-57.43613 59.240219L135.075395 699.874157c0 32.657794 25.767873 59.217706 57.43613 59.217706l612.482529 0c31.66314 0 57.414641-26.559912 57.414641-59.217706l0-160.797219c0-16.571421 13.034874-30.005384 29.096688-30.005384 16.066931 0 29.096688 13.43294 29.096688 30.005384L920.602072 699.868017c0 65.745377-51.868321 119.238708-115.606994 119.238708L192.511525 819.106726c-63.754023 0-115.618251-53.493332-115.618251-119.238708l0-631.719662c0-65.75254 51.864228-119.255081 115.618251-119.255081l184.333262 0c16.066931 0 29.096688 13.43908 29.096688 30.010501S392.911718 8.90916 376.844787 8.90916L376.844787 8.90916zM376.844787 8.90916M729.636762 623.270479c0 16.571421-13.034874 30.005384-29.096688 30.005384l-414.582273 0c-16.066931 0-29.096688-13.43294-29.096688-30.005384 0-16.57756 13.029758-30.010501 29.096688-30.010501l414.582273 0C716.601888 593.259978 729.636762 606.692918 729.636762 623.270479L729.636762 623.270479zM729.636762 623.270479M285.958824 494.941741c-16.066931 0-29.096688-13.43294-29.096688-29.999245 0-16.576537 13.029758-30.010501 29.096688-30.010501l286.069341 0c16.071024 0 29.096688 13.43294 29.096688 30.010501 0 16.566304-13.025665 29.999245-29.096688 29.999245L285.958824 494.941741 285.958824 494.941741zM285.958824 494.941741M448.387193 325.682803 285.958824 325.682803c-16.066931 0-29.096688-13.43294-29.096688-29.999245 0-16.57756 13.029758-30.010501 29.096688-30.010501l162.42837 0c16.065907 0 29.091572 13.43294 29.091572 30.010501C477.478765 312.248839 464.453101 325.682803 448.387193 325.682803L448.387193 325.682803zM448.387193 325.682803"  horiz-adv-x="1024" />

    
    <glyph glyph-name="shezhi2" unicode="&#58915;" d="M923.8 666.2l-113-113.4-110.2 20-19.8 110.2 113 113.4c-25.4 25.4-61.6 37-88.4 35.6-27-1.4-84.6-16.6-129.2-64-43.2-45.6-88.6-130.6-48.4-225 4.8-11.4 10.2-26.4-5.8-42.4-16.2-16-430-405.6-430-405.6-38.8-33.4-36-95.2-0.2-131.2 36.4-35.8 97.8-38 131.2 0.6 0 0 386.4 411.6 405.4 430.2 17 16.6 32.2 11 42.4 5.8 71.2-36.8 172.6-4.8 225.2 47.8 52.6 52.6 62.2 103.4 63.8 129.4C961.4 603.4 952.4 637.6 923.8 666.2zM182.6 9.6c-12.6-12.4-33-12.4-45.4 0-12.4 12.6-12.4 33 0 45.4 12.6 12.4 33 12.4 45.4 0C195 42.4 195 22 182.6 9.6z"  horiz-adv-x="1024" />

    
    <glyph glyph-name="wujiaoxing" unicode="&#58998;" d="M511.082606 806.292885 640.347668 514.417305 957.756785 480.414887 720.110293 267.272485 785.8526-45.099918 509.716492 115.060805 232.943888-44.007027 299.926442 268.116713 63.132364 482.1893 380.657114 514.935098 511.082606 806.292885Z"  horiz-adv-x="1024" />

    
    <glyph glyph-name="biaoqian2" unicode="&#58923;" d="M788.48 266.581333c0 17.066667-5.802667 31.744-17.749333 44.714667L421.205333 660.138667c-12.288 12.288-29.354667 22.869333-49.834667 31.744-21.162667 8.874667-39.936 12.970667-57.002667 12.970667L110.933333 704.853333c-17.066667 0-31.744-6.485333-44.032-18.773333-12.288-12.288-18.773333-26.965333-18.773333-44.032l0-202.752c0-17.066667 4.096-36.522667 12.970667-57.002667 8.874667-21.162667 18.773333-37.546667 31.744-49.834667l349.525333-349.525333c12.288-12.288 26.965333-17.749333 44.032-17.749333 17.066667 0 31.744 5.802667 44.714667 17.749333l239.616 239.616C781.994667 234.837333 788.48 249.514667 788.48 266.581333L788.48 266.581333 788.48 266.581333zM248.490667 503.808c-12.288-12.288-26.965333-18.090667-44.032-18.090667-17.066667 0-31.744 5.802667-44.032 18.090667-12.288 12.288-18.090667 26.965333-18.090667 44.032 0 17.066667 5.802667 31.744 18.090667 44.032 12.288 12.288 26.965333 18.090667 44.032 18.090667 17.066667 0 31.744-5.802667 44.032-18.090667C260.778667 579.584 266.24 564.906667 266.24 547.84 267.264 530.432 260.778667 516.096 248.490667 503.808L248.490667 503.808 248.490667 503.808zM958.122667 311.637333 608.597333 660.138667c-12.288 12.288-29.354667 22.869333-49.834667 31.744C537.6 700.757333 518.826667 704.853333 501.76 704.853333l-109.909333 0c17.066667 0 36.522667-4.096 57.002667-12.970667 21.162667-8.874667 37.546667-18.773333 49.834667-31.744l349.525333-348.501333c12.288-12.970667 18.090667-27.648 18.090667-44.714667s-5.802667-31.744-18.090667-44.032l-229.034667-229.717333c9.898667-9.898667 18.773333-17.066667 25.941333-21.845333 7.168-4.778667 17.066667-6.485333 28.672-6.485333 17.066667 0 31.744 5.802667 44.714667 18.090667l239.616 240.298667c12.288 12.288 17.749333 26.965333 17.749333 44.032S970.069333 298.325333 958.122667 311.637333L958.122667 311.637333 958.122667 311.637333zM958.122667 311.637333"  horiz-adv-x="1024" />

    
    <glyph glyph-name="fangkuangxuanze" unicode="&#58974;" d="M847.606717 48.393283 176.393283 48.393283 176.393283 719.606717l671.213433 0L847.606717 48.393283zM216.850459 88.864908l590.284634 0L807.135092 679.135092 216.850459 679.135092 216.850459 88.864908zM470.04013 230.869592 319.077071 381.485876 356.442162 418.937661 469.996783 305.65757 702.91452 537.115959 740.322958 499.72197Z"  horiz-adv-x="1024" />

    
    <glyph glyph-name="shezhi1" unicode="&#58895;" d="M-48.606208 12.183552M1041.337344 12.183552M45.560832 43.327488M403.534848 385.104896c0 36.704256 12.394496 67.21024 37.6576 92.474368 25.264128 25.264128 55.771136 37.658624 92.475392 37.658624 36.703232 0 67.211264-12.394496 92.475392-37.658624 25.265152-25.264128 37.6576-55.770112 37.6576-92.474368 0-36.70528-12.393472-67.689472-37.6576-92.952576-25.264128-25.263104-55.77216-37.656576-92.475392-37.656576-36.704256 0-67.331072 12.274688-92.475392 37.656576C415.809536 317.773824 403.534848 348.8768 403.534848 385.104896zM219.547648 300.256256c7.626752-27.169792 19.067904-53.865472 32.89088-78.651392l-85.801984-105.347072 97.241088-97.241088 105.335808 85.801984c24.787968-13.824 51.958784-25.264128 79.128576-33.368064l14.30016-134.421504 140.142592 0 14.30016 134.421504c27.170816 8.103936 52.912128 19.544064 79.127552 33.368064l104.869888-85.801984 98.195456 97.241088-86.278144 105.347072c13.346816 24.78592 25.263104 51.480576 33.364992 78.651392l134.424576 14.777344L980.789248 455.176192l-134.424576 14.30016c-8.101888 27.170816-20.018176 52.434944-33.364992 78.651392l86.278144 105.346048-98.195456 98.195456-104.869888-86.278144c-26.692608 13.34784-51.956736 25.264128-79.127552 33.36704L602.785792 833.181696 462.6432 833.181696l-14.30016-134.423552c-28.12416-8.102912-54.340608-20.020224-79.128576-33.36704l-105.335808 86.278144-97.241088-98.195456 85.801984-105.346048c-13.34784-26.217472-24.787968-51.480576-32.89088-78.651392L84.647936 455.176192l0-140.142592L219.547648 300.256256zM1021.78304 43.327488"  horiz-adv-x="1064" />

    
    <glyph glyph-name="wenzhang-copy" unicode="&#58947;" d="M788.551 603.105c-74.801 0-135.633 60.832-135.633 135.605v156.171h-487.636c-45.595 0-82.548-36.982-82.548-82.549v-856.719c0-45.567 36.955-82.493 82.548-82.493h693.46c45.571 0 82.523 36.926 82.523 82.493v647.493h-152.714zM805.084 56.884h-586.199v55.301h586.199v-55.301zM805.084 233.85h-586.199v55.301h586.199v-55.301zM805.084 410.816h-586.199v55.301h586.199v-55.301zM706.002 894.881v-156.171c0-45.567 36.955-82.493 82.549-82.493h152.714l-235.263 238.662z"  horiz-adv-x="1024" />

    
    <glyph glyph-name="xuexiao" unicode="&#58948;" d="M403.68-107.292c-273.985 63.717-446.022 337.703-375.933 611.688s337.703 446.022 611.688 375.933c101.948-25.487 197.524-76.461 267.613-159.294l-50.974-44.602c-63.717 70.089-140.178 114.691-229.383 140.178-248.498 57.346-484.253-89.204-541.599-331.331s95.576-477.881 331.331-535.227c57.346-12.743 114.691-12.743 178.409 0l12.743-63.717c-70.089-12.743-140.178-12.743-203.896 6.372zM397.309 262.27l-50.974 38.23 267.613 273.985c38.23 44.602 95.576 63.717 159.294 70.089 63.717 0 114.691-19.115 159.294-63.717l89.204-82.833-44.602-50.974-89.204 89.204c-63.717 63.717-165.665 57.346-223.011-6.372l-267.613-267.613zM824.216 1.028h-286.729c-50.974 0-95.576 44.602-95.576 95.576v203.896h63.717v-197.524c0-19.115 12.743-31.859 31.859-31.859h280.357c19.115 0 31.859 12.743 31.859 31.859l0 388.677h63.717v-388.677c6.372-57.346-38.23-101.948-89.204-101.948zM792.357 64.745h-63.717v133.807c0 19.115-12.743 31.859-31.859 31.859s-31.859-12.743-31.859-31.859l-0-133.807h-63.717v133.807c0 50.974 44.602 95.576 95.576 95.576s95.576-44.602 95.576-95.576l0-133.807zM747.755-62.69c-12.743 0-25.487 0-31.859-6.372-6.372 0-25.487-6.372-31.859 6.372-6.372 12.743-12.743 19.115-6.372 25.487 6.372 6.372 12.743 12.743 31.859 12.743 6.372 0 19.115 6.372 31.859 6.372 12.743 0 19.115 0 25.487-12.743 6.372-6.372 6.372-12.743 6.372-19.115 6.372-6.372-12.743-12.743-25.487-12.743zM894.305-113.664c-12.743-6.372-44.602-12.743-50.974-12.743s-31.859-6.372-38.23 6.372-6.372 19.115-6.372 25.487c6.372 6.372 19.115 19.115 38.23 19.115 6.372 0 25.487 6.372 38.23 6.372 12.743 0 31.859 0 31.859-12.743v0c0-19.115-6.372-25.487-12.743-31.859z"  horiz-adv-x="1024" />

    
    <glyph glyph-name="ai08" unicode="&#59004;" d="M163.386696 737.282139l705.252399 0 0-705.21556-705.252399 0 0 705.21556Z"  horiz-adv-x="1024" />

    
    <glyph glyph-name="jiaolian1" unicode="&#59037;" d="M956.671995-110.527988 947.519995-127.999988l-23.552 0L92.672005-127.999988 65.856005-127.999988l0.512 26.624c1.024 50.239999 6.272 118.335999 23.872 185.087998 18.24 68.735999 49.599999 136.191998 103.103999 182.463998L201.024004 272.640007l9.92-0.064 116.927999 1.152L327.872002 219.520008l-107.007999 0.896c-40.064-38.208-64.703999-93.183999-79.679999-149.823998-13.568-51.007999-19.2-103.167999-21.376-146.367998l784.447991 0.128c1.344 49.343999-13.056 107.647999-30.784 162.303998-17.856 55.167999-43.327999 102.143999-73.983999 134.591998l-122.239999 0L677.247998 273.728007l139.711998 0 10.752-3.52c40.896-38.208 74.175999-100.479999 95.871999-167.551998C946.303995 32.44801 963.263995-50.047989 956.671995-110.527988L956.671995-110.527988zM520-40.639989l-69.887999 52.351999L495.36 193.280008l-17.088 28.032 1.344 28.672c32.64 1.792 42.24 1.792 74.879999 0l1.344-28.672L538.688 193.280008l51.199999-181.503998L520-40.639989 520-40.639989zM722.239998 485.760005c-17.92-61.823999-42.368-108.095999-75.135999-142.399998C611.839999 306.368007 567.551999 284.224007 512.064 272.576007l-4.48-0.896-4.48 0.704C452.992001 280.768007 408.768001 302.016007 371.968002 339.392007 338.176002 373.632006 311.232002 421.248006 292.416003 484.672005 276.672003 493.184005 264.832003 507.392005 256.832003 526.400004 248.064003 547.328004 243.968003 574.656004 244.480003 607.040003l0.192 12.48 10.496 7.04c3.52 2.432 7.104 4.544 10.624 6.464C249.856003 730.304002 254.016003 813.120001 313.088002 868.288 360.064002 902.4 442.560001 879.104 518.144 890.368c215.615997 32.256 214.143997-76.671999 235.647997-261.311997 1.28-0.768 2.496-1.536 3.776-2.432l10.496-7.04 0.192-12.48c0.512-31.744-3.328-58.559999-11.776-79.359999C748.799997 508.800005 737.407997 494.528005 722.239998 485.760005L722.239998 485.760005zM696.383998 582.912004 693.119998 593.920004l-7.04-0.448-4.032 21.056c-3.136 16.448-7.872 101.567999-14.144 115.519999C649.279998 722.240002 628.351999 736.640002 609.407999 747.456002l-9.6-29.76L584.447999 719.680002l2.048 18.112L570.175999 711.936002 555.711999 714.816002l14.272 38.4C493.696 700.544002 362.240002 703.232002 344.896002 726.784002 342.208002 723.456002 341.696002 718.720002 340.224002 714.560002 336.640002 700.352002 332.608002 611.968003 329.088002 597.888003L328.128002 592.704004 327.744002 592.768004C326.976002 589.888004 326.272002 587.392004 325.504002 585.216004 318.976002 589.504004 305.728002 586.112004 293.824003 584.320004 294.976003 568.640004 297.600003 555.392004 302.016002 545.088004c4.352-10.496 10.368-17.28 17.92-19.584l12.928-3.968 3.52-12.928C353.024002 447.808005 376.960002 403.584006 406.976001 373.120006c27.968-28.352 61.567999-44.991999 99.711999-52.095999 43.391999 9.792 77.823999 27.328 105.023999 55.743999 28.8 30.144 50.239999 73.087999 66.303999 132.415998l3.328 12.352 12.224 4.288c7.424 2.56 13.312 9.472 17.6 19.968 4.16 10.24 6.784 23.168 7.872 38.464C711.871998 584.128004 704.639998 583.936004 696.383998 582.912004L696.383998 582.912004z"  horiz-adv-x="1024" />

    
    <glyph glyph-name="cuotiku" unicode="&#58906;" d="M853.615 700.975h-489.079c-19.316 0-34.947-15.63-34.947-34.947 0-19.316 15.63-34.947 34.947-34.947h489.079c19.316 0 34.947 15.63 34.947 34.947-0.001 19.317-15.631 34.947-34.947 34.947zM853.615 573.987h-573.477c-40.543 0-74.807 42.147-74.807 92.041 0 7.206 0.736 14.241 2.080 21.021 8.837 40.555 45.022 71.022 88.186 71.022h558.017c19.316 0 34.947 15.63 34.947 34.947 0 19.316-15.63 34.947-34.947 34.947h-573.477c-70.375 0-129.164-56.526-142.060-131.121-1.729-9.41-2.64-19.103-2.64-29.005v-517.577c0-115.93 94.329-210.225 210.259-210.225h507.611c0.051 0 0.102 0.004 0.153 0.004s0.102-0.004 0.153-0.004c19.316 0 34.947 15.63 34.947 34.947v564.057c0 19.316-15.63 34.946-34.946 34.946zM205.33 150.262v377.201c21.842-14.825 47.45-23.367 74.807-23.367h538.53v-494.165h-472.972c-77.401 0-140.365 62.965-140.365 140.332zM561.417 257.012l102.586 102.587c13.651 13.651 13.651 35.766 0 49.417s-35.766 13.651-49.417 0l-102.586-102.587-102.587 102.587c-13.651 13.651-35.766 13.651-49.415 0-13.651-13.651-13.651-35.766 0-49.417l102.587-102.587-102.587-102.586c-13.651-13.651-13.651-35.766 0-49.417 6.825-6.825 15.767-10.238 24.709-10.238 8.942 0 17.882 3.413 24.709 10.238l102.586 102.586 102.587-102.586c6.825-6.825 15.767-10.238 24.708-10.238 8.942 0 17.882 3.413 24.709 10.238 13.651 13.651 13.651 35.766 0 49.417l-102.587 102.586z"  horiz-adv-x="1024" />

    
    <glyph glyph-name="zanting" unicode="&#59242;" d="M757.52 822.893h-62.493c-34.526 0-62.498-27.984-62.498-62.511v-749.948c0-34.526 27.974-62.493 62.498-62.493h62.493c34.516 0 62.502 27.968 62.502 62.493v749.953c-0.001 34.524-27.984 62.509-62.502 62.509zM320.054 822.893h-62.502c-34.526 0-62.498-27.984-62.498-62.511v-749.948c0-34.526 27.974-62.493 62.498-62.493h62.502c34.505 0 62.493 27.968 62.493 62.493v749.953c-0.001 34.524-27.984 62.509-62.493 62.509z"  horiz-adv-x="1024" />

    
    <glyph glyph-name="icontag" unicode="&#58909;" d="M939.133124 816.952666c-10.438747 10.526751-24.586978 16.449647-39.343053 16.449647l-338.631464-0.022513c-14.748912 0-28.904307-5.900384-39.33589-16.434298L81.44801 372.535901c-10.43056-10.534937-16.292058-24.812105-16.292058-39.70428s5.861498-29.170366 16.292058-39.697117l338.624301-341.745385c10.868535-10.961656 25.105794-16.449647 39.343053-16.449647 14.244422 0 28.481681 5.487991 39.33589 16.449647L939.133124 395.813047c10.43056 10.534937 16.299221 24.812105 16.299221 39.712467L955.432345 777.248386C955.432345 792.140561 949.563684 806.418752 939.133124 816.952666zM695.768397 459.043137c-61.458747 0-111.284549 50.284243-111.284549 112.307855s49.825802 112.307855 111.284549 112.307855 111.284549-50.284243 111.284549-112.307855S757.227144 459.043137 695.768397 459.043137z"  horiz-adv-x="1024" />

    
    <glyph glyph-name="sanjiaoxing-up" unicode="&#59279;" d="M832.185 191.981h-640.37l320.184 384.016z"  horiz-adv-x="1024" />

    
    <glyph glyph-name="cuowu" unicode="&#58897;" d="M973.813482-125.590114 50.186518-125.590114c-26.38595 0-47.77305 21.399379-47.77305 47.774073L2.413468 845.816041c0 26.386974 21.385053 47.775096 47.77305 47.775096l923.626965 0c26.383904 0 47.774073-21.386076 47.774073-47.775096l0-923.633105C1021.584486-104.189711 1000.197386-125.590114 973.813482-125.590114zM926.039409 798.041968 97.959567 798.041968l0-828.085982 828.079842 0L926.039409 798.041968zM637.741307 655.773753c-29.264511 28.387537-69.828368 42.779316-120.559796 42.779316-51.233871 0-93.514837-16.388249-125.666094-48.713468-32.688493-32.863479-49.266054-70.802556-49.266054-112.763227 0-27.077705 12.788258-39.692001 40.247656-39.692001 26.02677 0 38.818097 13.218046 40.251749 41.599444 1.134847 22.308075 10.070356 41.589211 26.551726 57.3031 16.483416 15.71389 38.518269 23.682375 65.48955 23.682375 26.920116 0 48.378847-7.127328 63.799048-21.186532 15.573697-14.217816 23.468504-34.168194 23.468504-59.299571 0-10.419304-0.704035-19.544125-2.090615-27.116591-1.465374-7.92346-4.686742-15.902178-9.573029-23.725354-4.740978-7.55507-11.298324-15.700587-19.495006-24.210401-7.898901-8.214079-18.407232-18.648732-31.236422-31.006178-26.997887-26.613124-47.524386-53.581336-60.978816-80.117712-13.320377-26.266224-20.072151-52.851719-20.072151-79.017658 0-9.301853 0.509606-17.206894 1.515516-23.49204 0.876973-5.541203 2.692319-9.933233 5.39487-13.063527l0.00307-0.007163c2.615571-3.034103 6.544043-5.227048 11.672854-6.516414 5.868661-1.474584 14.226003-2.222621 24.842805-2.222621 25.282826 0 37.061081 14.391778 37.061081 45.301765 0 10.454096 0.697895 19.950378 2.072195 28.217668 1.417279 8.609075 4.586458 17.466814 9.41544 26.321482 4.690836 8.614192 11.774161 18.401092 21.053502 29.096688 9.092076 10.492982 21.541619 23.419386 37.002752 38.422078 24.928762 24.537859 43.61638 47.928592 55.518454 69.509097 11.665691 21.166065 17.58654 44.321438 17.58654 68.818365C681.74859 586.689329 666.943396 627.434312 637.741307 655.773753L637.741307 655.773753zM541.555641 167.783587c-5.288446 5.315052-11.350512 9.523911-18.175965 12.624529-6.837732 3.096525-14.210653 4.652973-22.138206 4.652973-7.933693 0-15.314801-1.558495-22.146393-4.652973-6.836709-3.100618-12.888542-7.309476-18.175965-12.624529-5.285377-5.311982-9.478885-11.409864-12.555967-18.270109-3.091408-6.875594-4.627391-14.288424-4.627391-22.258956 0-7.972579 1.538029-15.389502 4.627391-22.261003 3.077082-6.859221 7.269567-12.95301 12.555967-18.272155 5.287423-5.311982 11.339256-9.516748 18.175965-12.623505 6.826476-3.093455 14.2127-4.649903 22.146393-4.649903 7.927553 0 15.300474 1.556449 22.138206 4.649903 6.825452 3.106758 12.887518 7.309476 18.175965 12.623505 5.288446 5.315052 9.469676 11.412934 12.559037 18.272155 3.076058 6.875594 4.625344 14.288424 4.625344 22.261003 0 7.970532-1.549286 15.383362-4.625344 22.258956C551.025317 156.373723 546.844088 162.470581 541.555641 167.783587L541.555641 167.783587z"  horiz-adv-x="1024" />

    
    <glyph glyph-name="xierushujuku" unicode="&#58929;" d="M973.236849 445.993936c-9.705036 0-17.573237-7.868201-17.573237-17.573237l0-521.275247L35.270295-92.854549 35.270295 827.540815l564.896744 0c9.705036 0 17.573237 7.868201 17.573237 17.573237 0 9.705036-7.868201 17.573237-17.573237 17.573237L17.697057 862.68729 0.12382 862.68729l0-17.573237 0-955.540815 0-17.573237 17.573237 0L973.236849-128l17.573237 0 0 17.573237L990.810087 428.420699C990.810087 438.126758 982.942909 445.993936 973.236849 445.993936zM1016.510422 769.765971 872.256994 885.139651c-7.573489 6.056949-18.622126 4.834098-24.688285-2.733251L634.57571 616.682433c-1.670036-2.083451-2.842745-4.519943-3.430122-7.124258l-38.934754-172.627662c-2.920516-12.94994 9.021467-24.338315 21.818935-20.805862l177.323615 48.947805c3.572362 0.986467 6.742565 3.077082 9.055237 5.973038l218.857567 274.031167C1025.319042 752.655268 1024.085958 763.706975 1016.510422 769.765971zM776.504186 497.433492l-143.555533-39.626509 31.589462 140.058896L864.013239 846.727807l116.829845-93.440136L776.504186 497.433492zM416.399665 220.703867l-11.400654 10.006911-11.564383-9.816576L197.432605 54.516894c-7.399527-6.281053-8.306176-17.370623-2.025123-24.769127 6.281053-7.399527 17.370623-8.305153 24.769127-2.025123l184.437639 156.560732 196.315154-172.312484 12.374842-10.862395 11.643178 11.643178 169.606863 169.606863 26.316366 26.316366-37.042661 3.599991-136.867204 13.301957c-9.660011 0.938372-18.251689-6.130627-19.190061-15.790638-0.938372-9.660011 6.130627-18.251689 15.790638-19.191084l99.824543-9.701966L611.738585 49.246867 416.399665 220.703867zM176.954201 477.175099l191.107549 0c9.705036 0 17.573237 7.868201 17.573237 17.573237 0 9.705036-7.868201 17.573237-17.573237 17.573237L176.954201 512.321574c-9.705036 0-17.573237-7.868201-17.573237-17.573237C159.380964 485.043301 167.248142 477.175099 176.954201 477.175099zM176.954201 604.580814l191.107549 0c9.705036 0 17.573237 7.868201 17.573237 17.573237 0 9.705036-7.868201 17.573237-17.573237 17.573237L176.954201 639.727289c-9.705036 0-17.573237-7.868201-17.573237-17.573237C159.380964 612.449016 167.248142 604.580814 176.954201 604.580814zM176.954201 349.770408l191.107549 0c9.705036 0 17.573237 7.868201 17.573237 17.573237 0 9.705036-7.868201 17.573237-17.573237 17.573237L176.954201 384.916882c-9.705036 0-17.573237-7.868201-17.573237-17.573237C159.380964 357.637586 167.248142 349.770408 176.954201 349.770408z"  horiz-adv-x="1024" />

    
    <glyph glyph-name="zhishiku" unicode="&#58951;" d="M662.04483 424.396035c-1.741667 0-3.441379-0.176009-5.094018-0.502443-1.144056 0.320295-2.354628 0.502443-3.569292 0.502443L400.467299 424.396035c-0.74906 0-1.471514-0.076748-2.171456-0.192382-1.031493 0.121773-2.086521 0.192382-3.140527 0.192382-14.836917 0-26.853601-12.33698-26.853601-27.554566 0-15.22168 12.016685-27.558659 26.853601-27.558659 1.054005 0 2.103918 0.071631 3.140527 0.197498 0.699941-0.12075 1.422396-0.197498 2.171456-0.197498l252.91422 0c1.219781 0 2.425236 0.186242 3.569292 0.50142 1.651616-0.325411 3.351328-0.50142 5.094018-0.50142 14.82566 0 26.839275 12.33698 26.839275 27.558659C688.883081 412.059056 676.87049 424.396035 662.04483 424.396035zM764.316098 307.694103c-1.747807 0-3.462868-0.177032-5.121648-0.496304-1.121544 0.320295-2.325975 0.496304-3.569292 0.496304L400.462183 307.694103c-0.751107 0-1.466398-0.076748-2.165316-0.188288-1.037632 0.12075-2.091638 0.188288-3.146667 0.188288-14.836917 0-26.847461-12.332886-26.847461-27.557636 0-15.213493 12.016685-27.556613 26.847461-27.556613 1.060145 0 2.109034 0.076748 3.146667 0.198521 0.699941-0.121773 1.414209-0.198521 2.165316-0.198521l355.162976 0c1.243317 0 2.448772 0.187265 3.569292 0.508583 1.658779-0.332575 3.373841-0.508583 5.121648-0.508583 14.820544 0 26.833135 12.343119 26.833135 27.556613C791.149233 295.361217 779.141758 307.694103 764.316098 307.694103zM764.316098 190.993195c-1.747807 0-3.462868-0.176009-5.121648-0.496304-1.121544 0.320295-2.325975 0.496304-3.569292 0.496304L400.462183 190.993195c-0.751107 0-1.466398-0.064468-2.165316-0.187265-1.037632 0.121773-2.091638 0.187265-3.146667 0.187265-14.836917 0-26.847461-12.33084-26.847461-27.555589 0-15.21247 12.016685-27.557636 26.847461-27.557636 1.060145 0 2.109034 0.077771 3.146667 0.199545 0.699941-0.121773 1.414209-0.199545 2.165316-0.199545l355.162976 0c1.243317 0 2.448772 0.189312 3.569292 0.50756 1.658779-0.330528 3.373841-0.50756 5.121648-0.50756 14.820544 0 26.833135 12.344143 26.833135 27.557636C791.149233 178.662355 779.141758 190.993195 764.316098 190.993195zM960.07355-7.07386 960.07355 777.331273c0 0 1.477654 55.783491-63.86147 55.783491L123.439892 833.114764c-62.434981 0-63.890122-55.783491-63.890122-55.783491l0-784.475741c0 0.069585-0.198521-55.789631 63.890122-55.789631l182.209902 0c0.594541 0 1.186012-0.039909 1.77032-0.039909 0.655939 0 1.299599 0.039909 1.959631 0.039909l586.826196 0C962.832384-62.933075 960.07355-7.07386 960.07355-7.07386zM255.318478-9.71399l-110.74629-0.070608c-27.975145 0-31.234375 25.695219-31.234375 25.695219L113.337813 757.387036c0 24.62791 31.345915 21.506826 31.345915 21.506826L255.318478 778.893862 255.318478-9.71399 255.318478-9.71399zM877.218494-8.754129 310.036707-8.754129 310.036707 778.895909l281.991466 0 0-239.216243 84.669378 77.340459 85.36625-77.340459L762.063801 778.895909l113.172549 0c31.716352 0 30.115901-21.612227 30.115901-21.612227l0-744.434793C905.351228 12.848888 906.901537-8.754129 877.218494-8.754129z"  horiz-adv-x="1024" />

    
    <glyph glyph-name="caiwu" unicode="&#59002;" d="M849.822716 580.454748 176.769047 580.454748c-60.418236 0-109.566514-49.148277-109.566514-109.566514l0-414.788973c0-60.418037 49.148277-109.566514 109.566514-109.566514l673.05347 0c60.403446 0 109.566514 49.148477 109.566514 109.566514L959.38903 470.888234C959.38903 531.32206 910.225963 580.454748 849.822716 580.454748L849.822716 580.454748zM896.77948 56.099261c0-25.889047-21.067116-46.956963-46.956963-46.956963L176.769047 9.142298c-25.889047 0-46.956963 21.068715-46.956963 46.956963L129.812083 470.888234c0 25.889847 21.067916 46.956963 46.956963 46.956963l673.05347 0c25.889847 0 46.956963-21.067116 46.956963-46.956963L896.77948 56.099261 896.77948 56.099261zM658.972912 289.821197c13.524031 0 24.52797 10.98835 24.52797 24.52797 0 13.53962-11.004139 24.54276-24.52797 24.54276l-91.800959 0 93.617727 93.601138c9.578506 9.594295 9.578506 25.122367 0 34.701672-9.579505 9.594295-25.106578 9.594295-34.701672 0l-111.461629-111.493008-111.492208 111.493008c-9.579505 9.594295-25.106578 9.594295-34.701672 0-9.578506-9.563716-9.578506-25.107377 0-34.701672l93.617727-93.601138-94.446365 0c-13.555409 0-24.52797-11.00314-24.52797-24.54276 0-13.53962 10.97276-24.52797 24.52797-24.52797l121.149061 0 0-54.063545-121.149061 0c-13.555409 0-24.52797-10.98835-24.52797-24.543759 0-13.53962 10.97276-24.510582 24.52797-24.510582l121.149061 0 0-115.592628c0-13.53962 10.97276-24.52797 24.52797-24.52797 13.53962 0 24.526371 10.98835 24.526371 24.52797l0 115.592628 121.149061 0c13.523031 0 24.52797 10.971761 24.52797 24.510582 0 13.555409-11.004139 24.543759-24.52797 24.543759l-121.149061 0 0 54.063545L658.972912 289.821197 658.972912 289.821197zM179.696862 619.336186l667.18325 0c17.280284 0 31.304376 14.023292 31.304376 31.304376 0 17.295873-14.024891 31.305175-31.304376 31.305175l-667.18325 0c-17.280284 0-31.305175-14.008502-31.305175-31.305175C148.391487 633.359478 162.416578 619.336186 179.696862 619.336186L179.696862 619.336186zM262.857678 719.760698l500.876606 0c17.281083 0 31.305175 14.024891 31.305175 31.304376 0 17.295873-14.023292 31.304376-31.305175 31.304376L262.857479 782.36945c-17.280284 0-31.305175-14.009302-31.305175-31.304376C231.552304 733.785589 245.561605 719.760698 262.857678 719.760698L262.857678 719.760698z"  horiz-adv-x="1024" />

    
    <glyph glyph-name="renshu" unicode="&#59062;" d="M787.442658-126.677779c15.14544 0 27.406034 13.222209 27.886841 30.170677l0.240404 10.577767 0.480808 0c0.360606 7.692922 0.60101 14.424228 0.60101 20.915131 0 181.865477-100.849395 342.815823-256.991666 410.128888l-17.549478 7.57272 15.506045 11.178777c74.765583 54.090856 119.360488 144.482686 119.360488 241.605822 0 160.229135-120.201902 290.527996-268.050241 290.527996s-268.050241-130.298861-268.050241-290.527996c0-97.123137 44.594906-187.514967 119.360488-241.605822l15.506045-11.178777-17.549478-7.57272C102.171616 277.681418 1.322221 116.731072 1.322221-65.014204c0-6.490903 0.240404-13.102007 0.60101-20.915131l0.721211 0 0.120202-10.818171c0-17.188872 12.6212-31.132293 28.007043-31.132293C46.277732-128 772.177016-126.677779 787.442658-126.677779M718.566968 326.363188c70.197911-8.414133 133.664515-44.715107 179.221035-102.532222 45.316117-57.576711 70.318112-133.183707 70.318112-212.877568 0-17.549478 12.861603-31.733302 28.608053-31.733302 15.265642 0 27.766639 13.342411 28.367649 30.411081l0.120202 0.961615c0 0.120202 0 0.360606 0.120202 0.480808C1025.081817 162.407794 941.18089 296.192511 811.362836 352.086395l-17.549478 7.57272 15.506045 11.178777c62.144383 44.835309 99.286771 119.841296 99.286771 200.616974 0 111.787769-69.596901 207.708886-169.484681 234.033102l-0.60101-0.240404-2.764644 0.240404c-0.60101 0-1.202019 0.120202-1.803029 0.240404-0.240404 0-0.480808 0.120202-0.721211 0.120202-15.986853 0-28.968658-14.54443-28.968658-32.21411 0-15.986853 10.337364-29.329264 24.64139-31.733302l1.322221-0.240404 1.202019-0.480808c1.442423-0.60101 3.485855-1.322221 6.130297-2.043432 0.60101-0.120202 0.961615-0.240404 1.202019-0.360606l0 0c65.630238-24.04038 109.744336-90.39183 109.744336-164.917009 0-83.299918-54.812067-154.820049-130.539265-170.927104l-1.202019-0.721211-2.52424-0.120202c-17.910083-1.202019-31.973706-17.66968-31.973706-37.382791 0-20.193919 14.424228-36.66158 32.815119-37.502993l2.404038-0.120202L718.566968 326.363188 718.566968 326.363188M718.566968 326.363188"  horiz-adv-x="1026" />

    
    <glyph glyph-name="zuoye" unicode="&#58917;" d="M339.787668 678.866799 836.855307 678.866799 836.855307 622.736741 339.787668 622.736741 339.787668 678.866799 339.787668 678.866799 339.787668 678.866799 339.787668 678.866799ZM339.787668 458.490711 836.855307 458.490711 836.855307 402.360653 339.787668 402.360651 339.787668 458.490711 339.787668 458.490711 339.787668 458.490711 339.787668 458.490711ZM339.509882 238.114622 581.397714 238.114622 581.397714 181.985684 339.509882 181.985684 339.509882 238.114622 339.509882 238.114622 339.509882 238.114622 339.509882 238.114622ZM142.004684 692.899594 229.072739 692.899594 229.072739 608.705066 142.004684 608.705066 142.004684 692.899594 142.004684 692.899594 142.004684 692.899594 142.004684 692.899594ZM142.004684 472.523505 229.072739 472.523505 229.072739 388.328976 142.004684 388.328976 142.004684 472.523505 142.004684 472.523505 142.004684 472.523505 142.004684 472.523505ZM141.726897 252.147416 228.79947 252.147416 228.79947 167.919314 141.726897 167.919314 141.726897 252.147416 141.726897 252.147416 141.726897 252.147416 141.726897 252.147416ZM507.865546-22.712487 76.055191-22.712487C61.86097-22.712487 57.602703-11.596153 57.602703 2.161335L57.602703 812.299773C57.602703 826.022568 61.86097 837.174717 76.055191 837.174717L915.44071 837.174717C929.633803 837.174717 933.892069 826.057261 933.892069 812.299773L933.892069 343.553628 933.927074 343.553628C933.927074 343.414854 933.892069 343.278323 933.892069 343.105978 933.892069 328.007766 946.565239 315.76223 962.141615 315.76223 977.756392 315.76223 990.394557 328.007766 990.394557 343.105978 990.394557 343.242509 990.359547 343.381283 990.359547 343.553628L990.394557 343.553628 990.394557 864.556516C990.394557 880.060969 977.409719 892.620987 961.383914 892.620987L30.082626 892.620985C14.051173 892.620985 1.071985 880.060969 1.071985 864.556515L1.071985-50.090933C1.071985-65.59986 14.051172-78.154283 30.082626-78.154283L507.865547-78.154283C523.723101-78.154283 536.564524-65.737518 536.564524-50.433385 536.564524-35.095681 523.7231-22.712487 507.865546-22.712487L507.865546-22.712487 507.865546-22.712487 507.865546-22.712487ZM1031.483268 183.526723C1036.504883 188.606464 1039.654265 195.434291 1039.654265 203.017529 1039.654265 218.527577 1026.673944 231.081995 1010.643623 231.081995 1002.820425 231.081995 995.723318 228.06258 990.498444 223.155184L990.498444 223.155184 990.394557 223.052223 989.875114 222.537426 781.186183 20.724375 697.441404 101.732735C692.177009 106.842689 684.908253 110.037811 676.844539 110.037811 660.814212 110.037811 647.835028 97.477794 647.835028 81.967745 647.835028 74.212163 651.088292 67.214234 656.313166 62.138966L656.313166 62.138966 740.161832-18.939899 739.57238-19.489388 780.632867-59.187232 781.221187-58.636622 781.810639-59.187232 822.871121-19.489388 822.281674-18.939899 1031.483268 183.526723 1031.483268 183.526723 1031.483268 183.526723 1031.483268 183.526723Z"  horiz-adv-x="1078" />

    
    <glyph glyph-name="haofangtuo400iconfont2xuexiao" unicode="&#59118;" d="M512 333.643c-11.924 0-23.848 2.821-34.717 8.464l-417.4 216.708c-8.481 4.403-13.804 13.164-13.804 22.721s5.323 18.317 13.804 22.721l417.4 216.708c21.738 11.287 47.696 11.287 69.434 0l417.399-216.708c8.481-4.403 13.804-13.164 13.804-22.721s-5.323-18.317-13.804-22.721l-417.4-216.708c-10.869-5.643-22.792-8.464-34.717-8.464zM127.237 581.536l373.638-193.989c6.966-3.616 15.284-3.617 22.25 0l373.638 193.988-373.639 193.99c-6.966 3.617-15.284 3.617-22.25 0l-373.637-193.989zM883.712 186.493c-14.138 0-25.6 11.462-25.6 25.6v204.8c0 14.138 11.462 25.6 25.6 25.6s25.6-11.462 25.6-25.6v-204.8c0-14.138-11.462-25.6-25.6-25.6zM793.569 89.39c0.018 0.375 0.028 0.75 0.029 1.125 0 0.020 0.002 0.040 0.002 0.060v266.24c0 14.138-11.462 25.6-25.6 25.6s-25.6-11.462-25.6-25.6v-250.686l-218.581-113.485c-7.402-3.842-16.237-3.842-23.637 0l-218.589 113.49v250.686c0 14.138-11.462 25.6-25.6 25.6s-25.6-11.462-25.6-25.6v-266.24c0-0.020 0.001-0.040 0.002-0.060 0.001-0.376 0.011-0.752 0.029-1.125 0.002-0.048 0.003-0.098 0.006-0.146 0.465-8.76 5.418-17.053 13.767-21.387l232.394-120.657c11.086-5.756 23.247-8.633 35.409-8.633s24.324 2.877 35.41 8.633l232.388 120.652c8.349 4.335 13.302 12.627 13.767 21.387 0.003 0.048 0.004 0.097 0.006 0.146z"  horiz-adv-x="1024" />

    
    <glyph glyph-name="zuoye1" unicode="&#59403;" d="M812.940027 795.502122l0-47.5162c7.232728-10.001795 11.485589-21.742187 11.485589-34.325783 0-36.238342-34.412764-65.591881-76.860529-65.591881-42.467207 0-76.868715 29.356608-76.868715 65.591881 0 12.583596 4.220115 24.325012 11.45489 34.30634L682.151261 795.503145 578.478064 795.503145l0-47.517223c7.227612-9.999748 11.476379-21.741163 11.476379-34.323737 0-36.238342-34.4363-65.592904-76.882018-65.592904-42.445718 0-76.874855 29.357632-76.874855 65.592904 0 12.583596 4.263094 24.325012 11.496845 34.30634L447.694415 795.504168 343.977215 795.504168l0-47.517223c7.231705-9.999748 11.494799-21.741163 11.494799-34.325783 0-36.236296-34.43016-65.591881-76.896344-65.591881-42.450834 0-76.833923 29.357632-76.833923 65.591881 0 12.58462 4.222161 24.327058 11.450796 34.307364L213.192543 795.505191l-71.298859 0 0-649.105634 245.184165-209.152531 495.556493 0L882.634342 795.500075l-69.691245 0L812.940027 795.502122M847.613734-36.49903 464.621946-36.49903c-100.615559 0-52.122101 203.467041-52.122101 203.467041s-232.590336-48.238654-235.589646 42.771129L176.910199 624.937444l670.701488 0L847.611687-36.501076l0.002047 0L847.613734-36.49903M712.940498 422.752606 308.36002 422.752606l0-48.677653 404.580478 0L712.940498 422.752606M712.940498 530.484236 308.36002 530.484236l0-48.665373 404.580478 0L712.940498 530.484236M712.940498 315.023022 308.36002 315.023022l0-48.677653 404.580478 0L712.940498 315.023022M747.56304 675.439652c21.125133 0 38.275745 14.620999 38.275745 32.628118L785.838785 799.293471c0 18.008142-17.147542 32.630165-38.275745 32.630165-21.149693 0-38.269605-14.623046-38.269605-32.630165l0-91.222631C709.294458 690.058604 726.414371 675.439652 747.56304 675.439652L747.56304 675.439652zM278.599206 675.439652c21.128203 0 38.244023 14.620999 38.244023 32.628118L316.843228 799.293471c0 18.008142-17.119913 32.630165-38.244023 32.630165-21.149693 0-38.275745-14.623046-38.275745-32.630165l0-91.222631C240.327554 690.058604 257.449513 675.439652 278.599206 675.439652L278.599206 675.439652zM513.068332 675.439652c21.150716 0 38.269605 14.620999 38.269605 32.628118L551.337937 799.293471c0 18.008142-17.121959 32.630165-38.269605 32.630165-21.128203 0-38.275745-14.623046-38.275745-32.630165l0-91.222631C474.792587 690.058604 491.940129 675.439652 513.068332 675.439652"  horiz-adv-x="1024" />

    
    <glyph glyph-name="zhishiwenda" unicode="&#58934;" d="M429.470747 527.952133c-47.252308 0-85.69613-38.443822-85.69613-85.69613 0-15.374662 12.452493-27.840466 27.840466-27.840466s27.840466 12.465804 27.840466 27.840466c0 16.55725 13.457949 30.015198 30.015198 30.015199s30.015198-13.457949 30.015199-30.015199c0-16.543939-13.457949-30.015198-30.015199-30.015198-15.387973 0-27.840466-12.465804-27.840466-27.840466V346.242181c0-15.374662 12.452493-27.840466 27.840466-27.840466s27.840466 12.465804 27.840466 27.840466v14.952821c33.631561 11.595501 57.855664 43.555058 57.855664 81.059977 0 47.254356-38.443822 85.697154-85.69613 85.697154zM429.457437 269.340202m-28.383125 0a28.383125 28.383125 0 1 1 56.76625 0 28.383125 28.383125 0 1 1-56.76625 0ZM731.609068 636.295583H119.394244c-30.151375 0-54.702097-24.550722-54.702098-54.715408v-395.650791c0-30.164686 24.550722-54.715408 54.702098-54.715408h170.957109l-8.020094-62.069976c-3.045035-11.922121-0.896924-24.087926 6.062425-33.80767 7.395524-10.317692 19.466108-16.475339 32.271841-16.475338 7.395524 0 14.790024 2.05289 21.34289 5.927272a24.529221 24.529221 0 0 1 2.365175 1.576783l142.001632 104.849953h245.233846c30.17902 0 54.728718 24.550722 54.728718 54.715408v395.649767c0 30.164686-24.550722 54.715408-54.728718 54.715408zM477.212472 186.894908a27.814869 27.814869 0 0 1-16.530628-5.437855l-119.055338-87.911818 7.993473 61.94711a27.938759 27.938759 0 0 1-6.715664 21.940838c-5.274033 6.022493-12.914266 9.461724-20.907739 9.461725l-201.624522-0.965524-0.978834 394.685267 611.263634 0.965524 0.95119-394.685267H477.212472zM902.837506 833.366887H373.81746c-28.765034 0-52.173101-23.40909-52.1731-52.173101v-91.7862h55.680932V777.685955h522.005407V426.51479h-56.060793v-55.680931h59.568624c28.765034 0 52.173101 23.40909 52.173101 52.1731V781.193786c-0.001024 28.76401-23.40909 52.173101-52.174125 52.173101z"  horiz-adv-x="1024" />

    
    <glyph glyph-name="bangzhu2" unicode="&#58912;" d="M511.333 832.667c-247.424 0-448-200.576-448-448s200.576-448 448-448 448 200.576 448 448-200.576 448-448 448z m271.529-719.529c-35.286-35.287-76.359-62.983-122.078-82.321-47.3-20.006-97.583-30.15-149.451-30.15-51.868 0-102.15 10.144-149.451 30.15-45.719 19.337-86.792 47.034-122.078 82.321-35.287 35.286-62.983 76.359-82.321 122.078-20.006 47.3-30.15 97.583-30.15 149.451s10.144 102.15 30.15 149.451c19.337 45.719 47.034 86.792 82.321 122.078 35.286 35.287 76.359 62.983 122.078 82.321 47.3 20.006 97.583 30.15 149.451 30.15 51.868 0 102.15-10.144 149.451-30.15 45.719-19.337 86.792-47.034 122.078-82.321 35.287-35.286 62.983-76.359 82.321-122.078 20.006-47.3 30.15-97.583 30.15-149.451s-10.144-102.15-30.15-149.451c-19.337-45.719-47.034-86.792-82.321-122.078zM642.045 610.371c-26.482 39.772-72.632 61.676-129.945 61.676-45.43 0-81.73-14.938-107.891-44.4-21.679-24.415-34.958-57.378-39.469-97.974-3.153-28.378-0.747-50.163-0.462-52.553 2.091-17.549 18.02-30.084 35.56-27.991 17.549 2.09 30.081 18.011 27.991 35.56-0.019 0.161-1.845 16.636 0.52 37.916 2.077 18.688 7.877 44.708 23.717 62.547 13.679 15.406 33.317 22.895 60.034 22.895 35.722 0 62.235-11.462 76.675-33.147 15.268-22.93 14.215-52.064 6.398-70.765-4.475-10.704-25.708-30.276-42.77-46.002-35.924-33.111-73.07-67.349-73.07-108.723v-61.457c0-17.673 14.327-32 32-32s32 14.327 32 32V349.41c0 0.684 0.354 7.103 12.607 21.925 10.498 12.696 25.413 26.444 39.837 39.739 24.981 23.025 48.576 44.774 58.443 68.379 8.323 19.912 11.834 42.319 10.153 64.799-1.794 24.014-9.516 46.877-22.328 66.119zM512.099 193.035m-40 0a40 40 0 1 1 80 0 40 40 0 1 1-80 0Z"  horiz-adv-x="1024" />

    
    <glyph glyph-name="sousuo" unicode="&#58893;" d="M998.28736-58.24512L792.59648 147.456c66.59072 77.83424 106.94656 178.75968 106.94656 288.98304 0 245.51424-199.74144 445.24544-445.24544 445.24544C208.78336 881.68448 9.05216 681.95328 9.05216 436.43904s199.7312-445.2352 445.24544-445.2352c120.56576 0 230.03136 48.25088 310.28224 126.35136l204.7488-204.7488 28.95872 28.94848z m-543.98976 90.40896c-222.9248 0-404.28544 181.36064-404.28544 404.2752 0 222.9248 181.36064 404.28544 404.28544 404.28544s404.28544-181.36064 404.28544-404.28544c0-222.91456-181.36064-404.2752-404.28544-404.2752z"  horiz-adv-x="1024" />

    
    <glyph glyph-name="xuexiao1" unicode="&#58888;" d="M945.4 512.7l-399 204.6c-23.7 12.1-51.9 12.1-75.5-0.2L77.2 512.6c-9.8-5.1-15.8-15.1-15.8-26.1 0-11 6.1-21 15.8-26.1l37.5-19.5v-193.5c-14.8-8.3-25-24-25-42.2 0-26.8 21.7-48.5 48.5-48.5s48.5 21.7 48.5 48.5c0 18.2-10.1 33.9-25 42.2v169l104.5-54.3V150c0-25.7 16.5-48.2 41-56L432 54.3c25.6-8.1 52-12.2 78.3-12.2 25.3 0 50.6 3.7 75.2 11.2l134.1 40.8c24.8 7.6 41.6 30.1 41.7 56l0.8 216.2 183.3 94c9.9 5.1 16 15.1 16 26.1-0.1 11.2-6.2 21.2-16 26.3zM714.2 150.3c0-5.2-3.4-9.7-8.3-11.2l-134.1-40.8c-41.2-12.5-84.6-12.2-125.7 0.8l-124.7 39.6c-4.9 1.6-8.2 6.1-8.2 11.2v188L470.9 256c11.9-6.2 24.9-9.3 37.9-9.3 12.9 0 25.8 3 37.6 9.1l168.5 86.4-0.7-191.9zM525 297.6c-10.1-5.2-22.2-5.2-32.3 0.1L129 486.6l363.6 188.8c10.1 5.3 22.2 5.3 32.3 0.1l368.4-188.9-368.3-189z"  horiz-adv-x="1024" />

    
    <glyph glyph-name="shuxie" unicode="&#58896;" d="M900.2496 370.92352v-352.19456a46.65344 46.65344 0 0 0-46.61248-46.60224H149.26848a46.6432 46.6432 0 0 0-46.60224 46.60224V723.10784a46.66368 46.66368 0 0 0 46.60224 46.60224H501.4528v40.96H149.26848c-48.2816 0-87.56224-39.28064-87.56224-87.56224v-704.37888c0-48.2816 39.28064-87.56224 87.56224-87.56224h704.36864c48.29184 0 87.57248 39.28064 87.57248 87.56224V370.92352h-40.96zM935.2192 775.70048L515.93216 356.43392l-28.95872 28.95872L906.24 804.6592z"  horiz-adv-x="1024" />

    
    <glyph glyph-name="dianhua" unicode="&#58889;" d="M844.52407 479.263c-88.536 147.435-197.868 238.09-331.213 238.09-131.984 0-246.293-91.505-331.213-238.09C97.15807 332.677 29.15307 215.327 29.15307 215.327-34.78493 65.32 46.31607-57.426 209.40807-57.426h607.805c163.062 0 244.183 122.747 180.255 272.763 0-0.01-64.41 116.49-152.944 263.926zM513.30007 211.773c-114.872 0-207.994 93.103-207.994 207.985 0 114.883 93.122 207.985 207.994 207.985 114.893 0 208.006-93.102 208.006-207.985 0-114.893-93.113-207.985-208.006-207.985zM52.11107 488.315c38.206-23.706 83.62 8.5 91.597 29.399 52.357 136.99 181.146 236.943 336.67 245.596v-0.082a410.435 410.435 0 0 0 63.868 0.02c155.218-8.939 283.77-108.738 336.046-245.544 7.977-20.9 53.391-53.105 91.597-29.4 45.179 28.068 79.728 129.967 21.094 213.494-40.366 57.539-199.588 121.938-444.508 122.727v0.061a772.906 772.906 0 0 1-71.926 0v-0.051c-245.545-0.604-405.094-65.137-445.542-122.747-58.635-83.507-24.075-185.426 21.104-213.473z m0 0"  horiz-adv-x="1024" />

    
    <glyph glyph-name="jibenxinxi1" unicode="&#58905;" d="M800-64h-576a128 128 0 0 0-128 128V704a128 128 0 0 0 128 128h576a128 128 0 0 0 128-128v-640a128 128 0 0 0-128-128z m64 768a64 64 0 0 1-64 64h-576a64 64 0 0 1-64-64v-640a64 64 0 0 1 64-64h576a64 64 0 0 1 64 64V704z m-576-512h448v-64h-448v64z m0 128h448v-64h-448V320z m0 320h256v-256h-256V640z m64-192h128V576h-128v-128z"  horiz-adv-x="1024" />

    
    <glyph glyph-name="zhishiku1" unicode="&#58881;" d="M864.697765-126.193781H238.717189V734.506821h273.855383v-356.992052l138.573157 105.218605 135.317446-105.218605V734.506821h156.504401v-782.466915c0-43.160517-35.07317-78.233687-78.269811-78.233687zM651.145729 533.983046l-99.420641-78.233687V773.624116h195.620792v-317.87566l-96.200151 78.23459zM121.365304 812.741411v-39.116392c0-21.616835 17.50046-39.117295 39.117295-39.117295h39.15342v-860.701505H160.482599c-43.232766 0-78.233687 35.07317-78.233686 78.23459V812.741411c0 43.232766 35.000921 78.23459 78.233686 78.23459h704.215166c28.880546 0 53.791022-15.81887 67.390048-39.117295H160.482599c-21.615931 0-39.117295-17.501363-39.117295-39.117295z"  horiz-adv-x="1024" />

    
    <glyph glyph-name="caiwuguanli" unicode="&#58890;" d="M512 576c-211.2 0-384-243.2-384-544 0-38.4 6.4-108.8 12.8-134.4l6.4-12.8h736l6.4 12.8c6.4 25.6 12.8 96 12.8 134.4C896 332.8 723.2 576 512 576z m339.2-646.4H172.8c-6.4 25.6-6.4 64-6.4 108.8C166.4 307.2 320 531.2 512 531.2c192 0 345.6-224 345.6-499.2 0-38.4-6.4-83.2-6.4-102.4z m-256 684.8L716.8 844.8H531.2l-25.6-32-64 70.4h-128l102.4-268.8h179.2zM422.4 838.4l83.2-89.6 44.8 51.2H640L569.6 652.8H448L377.6 838.4h44.8z m179.2-627.2c-19.2 12.8-44.8 25.6-76.8 38.4V371.2c12.8 0 25.6-6.4 38.4-12.8 12.8-6.4 19.2-19.2 32-32l19.2 12.8-38.4 38.4c-12.8 6.4-32 12.8-51.2 12.8v38.4h-19.2v-38.4c-32 0-57.6-12.8-76.8-25.6-12.8-12.8-25.6-32-25.6-57.6 0-19.2 6.4-38.4 25.6-51.2 12.8-12.8 38.4-25.6 76.8-32v-140.8c-19.2 0-32 6.4-44.8 19.2-12.8 6.4-25.6 19.2-32 38.4l-19.2-19.2c12.8-19.2 25.6-32 44.8-44.8 19.2-12.8 38.4-19.2 57.6-19.2v-38.4h19.2v38.4c32 0 57.6 12.8 76.8 25.6 19.2 12.8 25.6 38.4 25.6 64-6.4 25.6-12.8 44.8-32 64z m-96 38.4c-25.6 6.4-44.8 12.8-57.6 25.6-12.8 6.4-19.2 19.2-19.2 38.4s6.4 32 19.2 38.4c12.8 12.8 32 19.2 51.2 19.2v-121.6h6.4z m76.8-147.2c-12.8-12.8-32-19.2-57.6-19.2v134.4c25.6-6.4 44.8-19.2 57.6-25.6 12.8-12.8 19.2-25.6 19.2-38.4 0-25.6-6.4-38.4-19.2-51.2z"  horiz-adv-x="1024" />

    
    <glyph glyph-name="shouhouwuyou" unicode="&#58942;" d="M1020.019 565.012c0 153.798-124.669 278.476-278.465 278.476-88.589 0-167.392-41.465-218.367-105.943l-1.514-0.67c-47.225 47.033-100.639 74.597-149.47 90.844 0.223 0.132 0.416 0.325 0.641 0.458-28.347 9.794-58.666 15.323-90.367 15.323C128.669 843.488 3.981 718.821 3.981 565.013c0-28.368 4.318-55.719 12.192-81.517 0.051 0.07 0.132 0.142 0.212 0.212 22.089-79.251 67.476-128.995 81.648-141.239l63.766-61.002-3.739-3.83c-18.085-18.491-17.689-48.15 0.813-66.195 18.491-18.054 48.118-17.699 66.195 0.783l3.891 3.86c0.437 0.377 0.976 0.619 1.585 0.619a2.527 2.527 0 0 0 2.549-2.56c0-0.59-0.235-1.088-0.579-1.535l0.051-0.041-3.718-3.82c-18.095-18.493-17.699-48.15 0.802-66.175 18.501-18.085 48.129-17.74 66.205 0.793l3.658 3.597a2.49 2.49 0 0 0 1.91 0.914c1.433 0 2.56-1.117 2.56-2.549 0-0.619-0.243-1.168-0.63-1.605l0.011-0.019-0.061-0.061c-0.051-0.051-0.092-0.132-0.153-0.172l-3.526-3.597c-18.085-18.482-17.699-48.141 0.802-66.185 18.513-18.066 48.141-17.719 66.205 0.771l3.82 3.932 0.07-0.082c0.437 0.336 0.965 0.579 1.543 0.579a2.544 2.544 0 0 0 2.56-2.56c0-0.569-0.223-1.057-0.548-1.484l0.031-0.031-0.204-0.212c-0.031-0.041-0.061-0.061-0.092-0.112l-3.435-3.526c-18.085-18.491-17.699-48.141 0.802-66.195 18.501-18.066 48.15-17.709 66.205 0.802l4.409 4.511-1.249-1.616 62.242-59.255c16.765-15.931 38.679-24.71 61.745-24.71h1.189c24.385 0.336 47.072 10.252 63.878 27.91 16.297 17.162 25.025 40.53 24.253 64.63 0.976-0.041 2.001-0.082 3.231-0.041 24.334 0.285 46.971 10.191 63.777 27.85 16.236 17.079 24.832 39.372 24.405 63.198 1.077-0.031 2.448-0.07 3.658-0.07 24.355 0.325 47.042 10.233 63.847 27.89 16.329 17.182 25.056 40.53 24.273 64.641 0.976-0.041 2.317-0.092 3.211-0.061 24.355 0.315 47.012 10.233 63.797 27.89 30.868 32.371 32.493 82.035 5.934 116.53 64.835 51.012 110.028 131.36 110.028 220.143zM867.787 262.853c-7.193-7.559-17.669-11.888-28.774-11.888-10.434 0-20.107 3.73-27.199 10.485l-65.677 61.328c-4.165 3.068-9.286 4.938-14.876 4.938-13.93 0-25.238-11.329-25.238-25.279 0-8.046 3.851-15.17 9.763-19.793l59.296-56.228c15.809-15.069 16.449-40.185 1.412-55.995-7.193-7.59-17.679-11.929-28.785-11.929-10.414 0-20.087 3.718-27.189 10.496l-63.39 60.881-0.031-0.061c-4.511 4.114-10.464 6.715-17.049 6.715-13.93 0-25.248-11.329-25.248-25.298 0-6.726 2.683-12.812 6.991-17.364l-0.07-0.061 61.562-58.534c15.647-15.069 16.226-40.163 1.3-55.903-7.193-7.539-17.669-11.877-28.785-11.877-10.445 0-20.097 3.73-27.18 10.476l-62.578 59.062-0.041-0.051c-4.561 4.654-10.923 7.549-17.953 7.549-13.95 0-25.248-11.318-25.248-25.29 0-7.377 3.211-13.909 8.24-18.542l60.83-57.782c15.799-15.069 16.439-40.205 1.422-56.014-7.184-7.559-17.679-11.908-28.785-11.908-10.445 0-20.087 3.708-27.188 10.496l-61.957 58.961 3.708 3.779c18.085 18.513 17.689 48.18-0.822 66.236-18.491 18.066-48.11 17.699-66.214-0.783l-2.124-2.164-0.061 0.082a2.508 2.508 0 0 0-1.91-0.864 2.515 2.515 0 0 0-2.519 2.53c0 0.813 0.377 1.504 0.955 1.97l1.9 1.91c18.085 18.513 17.689 48.17-0.813 66.215-18.491 18.095-48.129 17.711-66.225-0.802l-2.214-2.266-0.051 0.041c-0.437-0.325-0.965-0.59-1.554-0.59a2.544 2.544 0 0 0-2.541 2.549c0 0.579 0.212 1.077 0.548 1.504l-0.041 0.041 0.212 0.212c0.031 0.041 0.051 0.082 0.082 0.101l1.84 1.89c18.076 18.523 17.699 48.16-0.822 66.236-18.501 18.054-48.11 17.689-66.225-0.793l-2.407-2.317c-0.458-0.619-1.158-1.046-1.991-1.046-1.402 0-2.541 1.158-2.541 2.549 0 0.802 0.396 1.494 0.976 1.941l2.236 2.306c18.054 18.513 17.689 48.16-0.834 66.236-18.491 18.066-48.11 17.679-66.215-0.813l-2.418-2.459-65.158 63.136c-0.641 0.559-48.486 42.613-70.686 133.974 0.172 0.061 0.336 0.153 0.508 0.212-3.628 16.053-5.721 32.686-5.721 49.817 0 124.729 101.461 226.19 226.211 226.19 18.564 0 36.537-2.499 53.819-6.756 0.011 0.019 0.011 0.041 0.019 0.051 44.289-12.173 94.858-34.454 139.625-75.349L245.629 481.131c-9.348-8.799-15.271-21.204-15.271-35.054 0-26.671 21.612-48.271 48.252-48.271 1.351 0 2.621 0.294 3.962 0.416 0.031-0.092 0.07-0.142 0.112-0.212 1.037 0.122 2.083 0.365 3.14 0.529 1.269 0.204 2.499 0.396 3.749 0.63 38.315 7.59 110.595 84.525 176.385 125.714 37.106 22.891 59.235 30.135 99.937 30.135 33.916 0 64.741-12.852 88.151-33.834 2.804-2.083 5.75-4.624 9.043-7.863l140.782-135.173-0.041-0.122 61.205-58.614c15.851-15.058 17.772-40.774 2.754-56.563z"  horiz-adv-x="1024" />

    
    <glyph glyph-name="shezhi3" unicode="&#58900;" d="M89.298824 799.623529c0 16.564706 13.522824 30.117647 30.117647 30.117647h256c16.564706 0 30.117647-13.552941 30.117647-30.117647v-256c0-16.624941-13.552941-30.117647-30.117647-30.117647h-256c-16.594824 0-30.117647 13.492706-30.117647 30.117647V799.623529z m30.117647-346.352941h256c49.814588 0 90.352941 40.508235 90.352941 90.352941V799.623529c0 49.784471-40.538353 90.352941-90.352941 90.352942h-256c-49.814588 0-90.352941-40.568471-90.352942-90.352942v-256c0-49.844706 40.538353-90.352941 90.352942-90.352941zM943.887059 543.623529c0-16.624941-13.552941-30.117647-30.117647-30.117647h-256c-16.594824 0-30.117647 13.492706-30.117647 30.117647V799.623529c0 16.564706 13.522824 30.117647 30.117647 30.117647h256c16.564706 0 30.117647-13.552941 30.117647-30.117647v-256z m-30.117647 346.352942h-256c-49.814588 0-90.352941-40.568471-90.352941-90.352942v-256c0-49.844706 40.538353-90.352941 90.352941-90.352941h256c49.814588 0 90.352941 40.508235 90.352941 90.352941V799.623529c0 49.784471-40.538353 90.352941-90.352941 90.352942zM943.887059-9.818353c0-16.564706-13.552941-30.117647-30.117647-30.117647h-256c-16.594824 0-30.117647 13.552941-30.117647 30.117647v256c0 16.594824 13.522824 30.117647 30.117647 30.117647h256c16.564706 0 30.117647-13.522824 30.117647-30.117647v-256z m-30.117647 346.352941h-256c-49.814588 0-90.352941-40.538353-90.352941-90.352941v-256c0-49.814588 40.538353-90.352941 90.352941-90.352941h256c49.814588 0 90.352941 40.538353 90.352941 90.352941v256c0 49.814588-40.538353 90.352941-90.352941 90.352941zM89.298824 246.181647c0 16.594824 13.522824 30.117647 30.117647 30.117647h256c16.564706 0 30.117647-13.522824 30.117647-30.117647v-256c0-16.564706-13.552941-30.117647-30.117647-30.117647h-256c-16.594824 0-30.117647 13.552941-30.117647 30.117647v256z m30.117647-346.352941h256c49.814588 0 90.352941 40.538353 90.352941 90.352941v256c0 49.814588-40.538353 90.352941-90.352941 90.352941h-256c-49.814588 0-90.352941-40.538353-90.352942-90.352941v-256c0-49.814588 40.538353-90.352941 90.352942-90.352941z"  horiz-adv-x="1024" />

    
    <glyph glyph-name="chakan3" unicode="&#58904;" d="M512.038 681.835c-319.025 0-446.655-319.024-446.655-319.024s127.63-319.08 446.655-319.08c319.026 0 446.714 319.08 446.714 319.08S831.064 681.835 512.038 681.835z m0-510.474c-105.632 0-191.393 85.703-191.393 191.449 0 105.741 85.761 191.393 191.393 191.393 105.743 0 191.507-85.651 191.507-191.393 0-105.746-85.764-191.449-191.507-191.449zM607.733 362.811c0-52.87-42.823-95.753-95.695-95.753-52.757 0-95.641 42.883-95.641 95.753 0 52.815 42.884 95.695 95.641 95.695 52.872 0 95.695-42.88 95.695-95.695z"  horiz-adv-x="1024" />

    
    <glyph glyph-name="chengyuan" unicode="&#58945;" d="M510.080 419.712c-102.080 0-185.152 90.496-185.152 201.792 0 111.232 83.008 201.792 185.152 201.792s185.152-90.56 185.152-201.792c0-111.296-83.072-201.792-185.152-201.792zM510.080 759.488c-69.76 0-126.592-61.952-126.592-137.984 0-76.096 56.768-137.984 126.592-137.984s126.592 61.888 126.592 137.984c0 76.032-56.704 137.984-126.592 137.984zM691.776-53.248h-359.616c-0.144-0.001-0.315-0.001-0.486-0.001-43.737 0-82.698 20.454-107.837 52.318-18.782 23.505-30.006 53.291-30.006 85.698 0 11.483 1.409 22.637 4.064 33.298l21.817 116.815c20.352 85.312 88.96 130.432 192 130.432 17.012-0.786 30.507-14.769 30.507-31.904 0-17.135-13.495-31.118-30.436-31.901-42.758-0.003-111.942-6.147-129.606-79.875l-22.016-117.76c-5.696-23.872-0.64-46.976 13.568-65.024s35.52-28.352 58.496-28.352h359.616c22.912 0 44.224 10.368 58.432 28.352s19.328 41.152 13.888 63.488l-22.656 120.768c-17.344 72.256-86.784 83.264-129.408 83.264-16.781 1.095-29.977 14.975-29.977 31.936 0 16.961 13.196 30.841 29.882 31.931 103.071 0.005 171.871-49.979 191.903-133.691l22.656-120.896c2.295-9.364 3.612-20.114 3.612-31.171 0-32.293-11.228-61.962-29.994-85.319-25.19-31.929-64.201-52.407-107.995-52.407-0.143 0-0.286 0-0.428 0.001z"  horiz-adv-x="1024" />

    
    <glyph glyph-name="jiantou" unicode="&#58891;" d="M139.95 267.259h412.406v-125.235L926.403 384 552.356 625.966v-125.245H139.95v-233.457zM512 896c282.772 0 512-229.233 512-512s-229.222-512-512-512S0 101.233 0 384 229.228 896 512 896z"  horiz-adv-x="1024" />

    
    <glyph glyph-name="cuowuguanbiquxiao-xianxingfangkuang" unicode="&#59623;" d="M832 704v-640H192V704h640m32 64H160c-17.6 0-32-14.4-32-32v-704c0-17.6 14.4-32 32-32h704c17.6 0 32 14.4 32 32V736c0 17.6-14.4 32-32 32zM750.4 577.6l-45.6 45.6L512 428.8 318.4 622.4l-45.6-45.6L467.2 384 273.6 190.4l45.6-45.6L512 338.4l193.6-193.6 45.6 45.6L557.6 384l192.8 193.6z"  horiz-adv-x="1024" />

    
    <glyph glyph-name="cuowuguanbiquxiao-fangkuang" unicode="&#59624;" d="M864 768H160c-17.6 0-32-14.4-32-32v-704c0-17.6 14.4-32 32-32h704c17.6 0 32 14.4 32 32V736c0 17.6-14.4 32-32 32zM750.4 190.4l-45.6-45.6L512 338.4 318.4 145.6l-45.6 45.6L467.2 384 273.6 577.6l45.6 45.6L512 428.8l193.6 193.6 45.6-45.6L557.6 384l192.8-193.6z"  horiz-adv-x="1024" />

    
    <glyph glyph-name="zhuzhuangtu" unicode="&#59188;" d="M188.0832 402.3552h-39.64928c-29.19936 0-52.864-23.66976-52.864-52.864v-237.89568c0-29.19936 23.66976-52.864 52.864-52.864h39.64928c29.19936 0 52.864 23.66976 52.864 52.864V349.4912c0 29.19424-23.66464 52.864-52.864 52.864zM875.56608 297.63072h-39.64928c-29.19936 0-52.864-23.66976-52.864-52.864v-133.1712c0-29.19936 23.66976-52.864 52.864-52.864h39.64928c29.19936 0 52.864 23.66976 52.864 52.864v133.1712c0.00512 29.19424-23.66464 52.864-52.864 52.864zM417.24416 709.2736h-39.64928c-29.19936 0-52.864-23.66976-52.864-52.864v-544.81408c0-29.19936 23.66976-52.864 52.864-52.864h39.64928c29.19936 0 52.864 23.66976 52.864 52.864V656.4096c0 29.19424-23.66464 52.864-52.864 52.864zM646.40512 466.9696h-39.64928c-29.19936 0-52.864-23.66976-52.864-52.864v-302.51008c0-29.19936 23.66976-52.864 52.864-52.864h39.64928c29.19936 0 52.864 23.66976 52.864 52.864V414.1056c0 29.19424-23.66464 52.864-52.864 52.864z"  horiz-adv-x="1024" />

    
    <glyph glyph-name="biaoqian3" unicode="&#59024;" d="M768 790.4h-512c-35.2 0-64-28.8-64-64v-713.6c-3.2-9.6 0-19.2 9.6-25.6 12.8-12.8 28.8-12.8 41.6 0l268.8 268.8 268.8-268.8c12.8-12.8 28.8-12.8 41.6 0 6.4 6.4 9.6 16 9.6 25.6v713.6c0 35.2-28.8 64-64 64zM768 83.2l-233.6 236.8c-6.4 6.4-12.8 9.6-22.4 9.6-6.4 0-16-3.2-22.4-9.6l-233.6-236.8v608c0 19.2 12.8 32 32 32h448c19.2 0 32-12.8 32-32v-608z"  horiz-adv-x="1024" />

    
    <glyph glyph-name="wenben" unicode="&#59038;" d="M672 608h-320c-9.6 0-16-3.2-22.4-9.6s-9.6-12.8-9.6-22.4v-64c0-19.2 12.8-32 32-32s32 16 32 32v32h96v-320h-32c-16 0-32-12.8-32-32s12.8-32 32-32h128c16 0 32 12.8 32 32s-12.8 32-32 32h-32v320h96v-32c0-19.2 12.8-32 32-32s32 16 32 32v64c0 9.6-3.2 16-9.6 22.4s-12.8 9.6-22.4 9.6zM896 768h-768c-35.2 0-64-28.8-64-64v-640c0-35.2 28.8-64 64-64h768c35.2 0 64 28.8 64 64v640c0 35.2-28.8 64-64 64zM896 96c0-16-12.8-32-32-32h-704c-19.2 0-32 16-32 32v576c0 16 12.8 32 32 32h704c19.2 0 32-16 32-32v-576z"  horiz-adv-x="1024" />

    
    <glyph glyph-name="sousuo1" unicode="&#59035;" d="M748.8 192a377.28 377.28 0 0 1 85.12 240c0 211.84-172.16 384-384 384-212.48 0-384-172.16-384-384s171.52-384 384-384c97.92 0 187.52 36.48 255.36 97.92L914.56-64l45.44 45.44L748.8 192z m-298.88-80c-176.64 0-320 143.36-320 320s143.36 320 320 320 320-143.36 320-320-143.36-320-320-320z"  horiz-adv-x="1024" />

    
    <glyph glyph-name="qunzu" unicode="&#59030;" d="M507.904 371.712c-77.824 34.816-133.12 114.688-133.12 206.848 0 124.928 100.352 225.28 225.28 225.28s225.28-100.352 225.28-225.28c0-92.16-55.296-169.984-133.12-206.848 176.128-40.96 307.2-200.704 307.2-389.12 0-12.288-8.192-20.48-20.48-20.48s-20.48 8.192-20.48 20.48c0 198.656-159.744 358.4-358.4 358.4s-358.4-159.744-358.4-358.4c0-12.288-8.192-20.48-20.48-20.48s-20.48 8.192-20.48 20.48c0 190.464 131.072 348.16 307.2 389.12z m-118.784 6.144v-2.048c0-12.288-8.192-20.48-20.48-20.48-169.984 0-307.2-137.216-307.2-307.2 0-12.288-8.192-20.48-20.48-20.48s-20.48 8.192-20.48 20.48c0 159.744 108.544 294.912 253.952 335.872-65.536 34.816-110.592 102.4-110.592 182.272 0 112.64 92.16 204.8 204.8 204.8 12.288 0 20.48-8.192 20.48-20.48s-8.192-20.48-20.48-20.48c-90.112 0-163.84-73.728-163.84-163.84s73.728-163.84 163.84-163.84c12.288 0 20.48-8.192 20.48-20.48v-4.096z m208.896 16.384c102.4 0 184.32 81.92 184.32 184.32s-81.92 184.32-184.32 184.32-184.32-81.92-184.32-184.32 83.968-184.32 184.32-184.32z"  horiz-adv-x="1024" />

    
    </font>
</defs>
</svg>
